<svg id="visual" viewBox="0 0 900 600" width="900" height="600" xmlns="http://www.w3.org/2000/svg" xmlns:xlink="http://www.w3.org/1999/xlink" version="1.1"><path d="M0 394L21.5 398C43 402 86 410 128.8 402.7C171.7 395.3 214.3 372.7 257.2 372.5C300 372.3 343 394.7 385.8 409.8C428.7 425 471.3 433 514.2 431.8C557 430.7 600 420.3 642.8 420.5C685.7 420.7 728.3 431.3 771.2 424.5C814 417.7 857 393.3 878.5 381.2L900 369L900 601L878.5 601C857 601 814 601 771.2 601C728.3 601 685.7 601 642.8 601C600 601 557 601 514.2 601C471.3 601 428.7 601 385.8 601C343 601 300 601 257.2 601C214.3 601 171.7 601 128.8 601C86 601 43 601 21.5 601L0 601Z" fill="#036666"></path><path d="M0 447L21.5 442.8C43 438.7 86 430.3 128.8 422.5C171.7 414.7 214.3 407.3 257.2 409.5C300 411.7 343 423.3 385.8 429.7C428.7 436 471.3 437 514.2 431.3C557 425.7 600 413.3 642.8 414.8C685.7 416.3 728.3 431.7 771.2 438.5C814 445.3 857 443.7 878.5 442.8L900 442L900 601L878.5 601C857 601 814 601 771.2 601C728.3 601 685.7 601 642.8 601C600 601 557 601 514.2 601C471.3 601 428.7 601 385.8 601C343 601 300 601 257.2 601C214.3 601 171.7 601 128.8 601C86 601 43 601 21.5 601L0 601Z" fill="#00505a"></path><path d="M0 463L21.5 459.2C43 455.3 86 447.7 128.8 444.2C171.7 440.7 214.3 441.3 257.2 446.5C300 451.7 343 461.3 385.8 471.3C428.7 481.3 471.3 491.7 514.2 490.2C557 488.7 600 475.3 642.8 476C685.7 476.7 728.3 491.3 771.2 490.7C814 490 857 474 878.5 466L900 458L900 601L878.5 601C857 601 814 601 771.2 601C728.3 601 685.7 601 642.8 601C600 601 557 601 514.2 601C471.3 601 428.7 601 385.8 601C343 601 300 601 257.2 601C214.3 601 171.7 601 128.8 601C86 601 43 601 21.5 601L0 601Z" fill="#003a4a"></path><path d="M0 492L21.5 499.7C43 507.3 86 522.7 128.8 526.3C171.7 530 214.3 522 257.2 520.8C300 519.7 343 525.3 385.8 523.8C428.7 522.3 471.3 513.7 514.2 505.7C557 497.7 600 490.3 642.8 490.5C685.7 490.7 728.3 498.3 771.2 506.8C814 515.3 857 524.7 878.5 529.3L900 534L900 601L878.5 601C857 601 814 601 771.2 601C728.3 601 685.7 601 642.8 601C600 601 557 601 514.2 601C471.3 601 428.7 601 385.8 601C343 601 300 601 257.2 601C214.3 601 171.7 601 128.8 601C86 601 43 601 21.5 601L0 601Z" fill="#022537"></path><path d="M0 530L21.5 536.3C43 542.7 86 555.3 128.8 557.8C171.7 560.3 214.3 552.7 257.2 547.2C300 541.7 343 538.3 385.8 537C428.7 535.7 471.3 536.3 514.2 535.3C557 534.3 600 531.7 642.8 535C685.7 538.3 728.3 547.7 771.2 553.2C814 558.7 857 560.3 878.5 561.2L900 562L900 601L878.5 601C857 601 814 601 771.2 601C728.3 601 685.7 601 642.8 601C600 601 557 601 514.2 601C471.3 601 428.7 601 385.8 601C343 601 300 601 257.2 601C214.3 601 171.7 601 128.8 601C86 601 43 601 21.5 601L0 601Z" fill="#001122"></path></svg>