<svg id="visual" viewBox="0 0 900 600" width="900" height="600" xmlns="http://www.w3.org/2000/svg" xmlns:xlink="http://www.w3.org/1999/xlink" version="1.1"><path d="M0 412L129 353L257 423L386 350L514 414L643 385L771 439L900 446L900 601L771 601L643 601L514 601L386 601L257 601L129 601L0 601Z" fill="#56ab91"></path><path d="M0 418L129 452L257 448L386 405L514 410L643 460L771 450L900 454L900 601L771 601L643 601L514 601L386 601L257 601L129 601L0 601Z" fill="#238281"></path><path d="M0 500L129 510L257 457L386 465L514 441L643 442L771 452L900 448L900 601L771 601L643 601L514 601L386 601L257 601L129 601L0 601Z" fill="#005a68"></path><path d="M0 494L129 525L257 536L386 541L514 491L643 487L771 526L900 489L900 601L771 601L643 601L514 601L386 601L257 601L129 601L0 601Z" fill="#013447"></path><path d="M0 528L129 568L257 552L386 543L514 553L643 530L771 544L900 535L900 601L771 601L643 601L514 601L386 601L257 601L129 601L0 601Z" fill="#001122"></path></svg>