<svg id="visual" viewBox="0 0 900 600" width="900" height="600" xmlns="http://www.w3.org/2000/svg" xmlns:xlink="http://www.w3.org/1999/xlink" version="1.1"><path d="M0 440L21.5 430.3C43 420.7 86 401.3 128.8 389.2C171.7 377 214.3 372 257.2 382.2C300 392.3 343 417.7 385.8 424.5C428.7 431.3 471.3 419.7 514.2 414.7C557 409.7 600 411.3 642.8 405C685.7 398.7 728.3 384.3 771.2 380C814 375.7 857 381.3 878.5 384.2L900 387L900 601L878.5 601C857 601 814 601 771.2 601C728.3 601 685.7 601 642.8 601C600 601 557 601 514.2 601C471.3 601 428.7 601 385.8 601C343 601 300 601 257.2 601C214.3 601 171.7 601 128.8 601C86 601 43 601 21.5 601L0 601Z" fill="#56ab91"></path><path d="M0 409L21.5 416C43 423 86 437 128.8 437.5C171.7 438 214.3 425 257.2 425C300 425 343 438 385.8 446C428.7 454 471.3 457 514.2 448.8C557 440.7 600 421.3 642.8 410.3C685.7 399.3 728.3 396.7 771.2 397.3C814 398 857 402 878.5 404L900 406L900 601L878.5 601C857 601 814 601 771.2 601C728.3 601 685.7 601 642.8 601C600 601 557 601 514.2 601C471.3 601 428.7 601 385.8 601C343 601 300 601 257.2 601C214.3 601 171.7 601 128.8 601C86 601 43 601 21.5 601L0 601Z" fill="#238281"></path><path d="M0 445L21.5 446.3C43 447.7 86 450.3 128.8 458C171.7 465.7 214.3 478.3 257.2 475.7C300 473 343 455 385.8 447.7C428.7 440.3 471.3 443.7 514.2 446.3C557 449 600 451 642.8 458.8C685.7 466.7 728.3 480.3 771.2 479.5C814 478.7 857 463.3 878.5 455.7L900 448L900 601L878.5 601C857 601 814 601 771.2 601C728.3 601 685.7 601 642.8 601C600 601 557 601 514.2 601C471.3 601 428.7 601 385.8 601C343 601 300 601 257.2 601C214.3 601 171.7 601 128.8 601C86 601 43 601 21.5 601L0 601Z" fill="#005a68"></path><path d="M0 523L21.5 519.8C43 516.7 86 510.3 128.8 510.3C171.7 510.3 214.3 516.7 257.2 519C300 521.3 343 519.7 385.8 520.7C428.7 521.7 471.3 525.3 514.2 524.8C557 524.3 600 519.7 642.8 518.8C685.7 518 728.3 521 771.2 525.7C814 530.3 857 536.7 878.5 539.8L900 543L900 601L878.5 601C857 601 814 601 771.2 601C728.3 601 685.7 601 642.8 601C600 601 557 601 514.2 601C471.3 601 428.7 601 385.8 601C343 601 300 601 257.2 601C214.3 601 171.7 601 128.8 601C86 601 43 601 21.5 601L0 601Z" fill="#013447"></path><path d="M0 530L21.5 534.5C43 539 86 548 128.8 549.8C171.7 551.7 214.3 546.3 257.2 541.2C300 536 343 531 385.8 536.3C428.7 541.7 471.3 557.3 514.2 559.8C557 562.3 600 551.7 642.8 546.5C685.7 541.3 728.3 541.7 771.2 545.5C814 549.3 857 556.7 878.5 560.3L900 564L900 601L878.5 601C857 601 814 601 771.2 601C728.3 601 685.7 601 642.8 601C600 601 557 601 514.2 601C471.3 601 428.7 601 385.8 601C343 601 300 601 257.2 601C214.3 601 171.7 601 128.8 601C86 601 43 601 21.5 601L0 601Z" fill="#001122"></path></svg>