<svg id="visual" viewBox="0 0 900 600" width="900" height="600" xmlns="http://www.w3.org/2000/svg" xmlns:xlink="http://www.w3.org/1999/xlink" version="1.1"><path d="M0 383L129 356L257 440L386 423L514 354L643 390L771 398L900 429L900 601L771 601L643 601L514 601L386 601L257 601L129 601L0 601Z" fill="#036666"></path><path d="M0 470L129 444L257 408L386 414L514 447L643 395L771 438L900 441L900 601L771 601L643 601L514 601L386 601L257 601L129 601L0 601Z" fill="#00505a"></path><path d="M0 500L129 452L257 460L386 473L514 473L643 445L771 464L900 484L900 601L771 601L643 601L514 601L386 601L257 601L129 601L0 601Z" fill="#003a4a"></path><path d="M0 484L129 495L257 538L386 503L514 532L643 524L771 481L900 522L900 601L771 601L643 601L514 601L386 601L257 601L129 601L0 601Z" fill="#022537"></path><path d="M0 559L129 539L257 571L386 545L514 568L643 569L771 554L900 562L900 601L771 601L643 601L514 601L386 601L257 601L129 601L0 601Z" fill="#001122"></path></svg>