<svg id="visual" viewBox="0 0 900 600" width="900" height="600" xmlns="http://www.w3.org/2000/svg" xmlns:xlink="http://www.w3.org/1999/xlink" version="1.1"><g stroke-width="1" stroke-linejoin="bevel"><path d="M471 289L396 318L411 364Z" fill="#004b58" stroke="#004b58"></path><path d="M411 364L471 430L471 289Z" fill="#004b58" stroke="#004b58"></path><path d="M380 199L326 325L396 318Z" fill="#005d62" stroke="#005d62"></path><path d="M396 318L326 325L411 364Z" fill="#005d62" stroke="#005d62"></path><path d="M387 530L495 491L471 430Z" fill="#03192a" stroke="#03192a"></path><path d="M471 430L567 339L471 289Z" fill="#03192a" stroke="#03192a"></path><path d="M499 176L380 199L471 289Z" fill="#004351" stroke="#004351"></path><path d="M471 289L380 199L396 318Z" fill="#005d62" stroke="#005d62"></path><path d="M631 213L499 176L471 289Z" fill="#036666" stroke="#036666"></path><path d="M387 530L471 430L411 364Z" fill="#036666" stroke="#036666"></path><path d="M471 430L618 433L567 339Z" fill="#003243" stroke="#003243"></path><path d="M326 325L292 420L411 364Z" fill="#00545d" stroke="#00545d"></path><path d="M610 460L618 433L471 430Z" fill="#03192a" stroke="#03192a"></path><path d="M567 339L631 213L471 289Z" fill="#036666" stroke="#036666"></path><path d="M292 420L387 530L411 364Z" fill="#001122" stroke="#001122"></path><path d="M495 491L610 460L471 430Z" fill="#03192a" stroke="#03192a"></path><path d="M680 479L610 460L596 600Z" fill="#004b58" stroke="#004b58"></path><path d="M380 199L275 195L326 325Z" fill="#036666" stroke="#036666"></path><path d="M326 325L200 397L292 420Z" fill="#004351" stroke="#004351"></path><path d="M335 125L275 195L380 199Z" fill="#036666" stroke="#036666"></path><path d="M709 315L631 213L567 339Z" fill="#004b58" stroke="#004b58"></path><path d="M586 111L472 102L499 176Z" fill="#004b58" stroke="#004b58"></path><path d="M499 176L472 102L380 199Z" fill="#00545d" stroke="#00545d"></path><path d="M292 420L299 507L387 530Z" fill="#003a4a" stroke="#003a4a"></path><path d="M414 73L335 125L380 199Z" fill="#036666" stroke="#036666"></path><path d="M216 228L199 310L326 325Z" fill="#01293b" stroke="#01293b"></path><path d="M292 420L181 510L299 507Z" fill="#004b58" stroke="#004b58"></path><path d="M234 63L216 228L275 195Z" fill="#005d62" stroke="#005d62"></path><path d="M275 195L216 228L326 325Z" fill="#004351" stroke="#004351"></path><path d="M199 310L200 397L326 325Z" fill="#00545d" stroke="#00545d"></path><path d="M472 102L414 73L380 199Z" fill="#003243" stroke="#003243"></path><path d="M631 213L586 111L499 176Z" fill="#001122" stroke="#001122"></path><path d="M472 102L473 0L414 73Z" fill="#00545d" stroke="#00545d"></path><path d="M680 479L702 379L618 433Z" fill="#036666" stroke="#036666"></path><path d="M618 433L702 379L567 339Z" fill="#005d62" stroke="#005d62"></path><path d="M702 379L709 315L567 339Z" fill="#003a4a" stroke="#003a4a"></path><path d="M631 213L674 73L586 111Z" fill="#03192a" stroke="#03192a"></path><path d="M296 600L411 600L387 530Z" fill="#00545d" stroke="#00545d"></path><path d="M387 530L411 600L495 491Z" fill="#005d62" stroke="#005d62"></path><path d="M596 600L610 460L495 491Z" fill="#022133" stroke="#022133"></path><path d="M610 460L680 479L618 433Z" fill="#01293b" stroke="#01293b"></path><path d="M709 315L706 221L631 213Z" fill="#022133" stroke="#022133"></path><path d="M411 600L526 600L495 491Z" fill="#022133" stroke="#022133"></path><path d="M224 600L296 600L299 507Z" fill="#001122" stroke="#001122"></path><path d="M299 507L296 600L387 530Z" fill="#004b58" stroke="#004b58"></path><path d="M526 600L596 600L495 491Z" fill="#022133" stroke="#022133"></path><path d="M89 406L181 510L200 397Z" fill="#003243" stroke="#003243"></path><path d="M200 397L181 510L292 420Z" fill="#01293b" stroke="#01293b"></path><path d="M636 0L473 0L586 111Z" fill="#022133" stroke="#022133"></path><path d="M586 111L473 0L472 102Z" fill="#00545d" stroke="#00545d"></path><path d="M414 73L315 0L335 125Z" fill="#004351" stroke="#004351"></path><path d="M335 125L234 63L275 195Z" fill="#022133" stroke="#022133"></path><path d="M473 0L391 0L414 73Z" fill="#001122" stroke="#001122"></path><path d="M315 0L234 63L335 125Z" fill="#003a4a" stroke="#003a4a"></path><path d="M216 228L97 226L199 310Z" fill="#01293b" stroke="#01293b"></path><path d="M706 221L674 73L631 213Z" fill="#004351" stroke="#004351"></path><path d="M181 510L224 600L299 507Z" fill="#004b58" stroke="#004b58"></path><path d="M391 0L315 0L414 73Z" fill="#01293b" stroke="#01293b"></path><path d="M110 62L97 226L216 228Z" fill="#03192a" stroke="#03192a"></path><path d="M199 310L89 406L200 397Z" fill="#003a4a" stroke="#003a4a"></path><path d="M61 312L89 406L199 310Z" fill="#004351" stroke="#004351"></path><path d="M181 510L97 600L224 600Z" fill="#022133" stroke="#022133"></path><path d="M693 600L766 501L680 479Z" fill="#036666" stroke="#036666"></path><path d="M680 479L802 436L702 379Z" fill="#004351" stroke="#004351"></path><path d="M702 379L823 313L709 315Z" fill="#03192a" stroke="#03192a"></path><path d="M709 315L800 213L706 221Z" fill="#003a4a" stroke="#003a4a"></path><path d="M596 600L693 600L680 479Z" fill="#005d62" stroke="#005d62"></path><path d="M766 501L802 436L680 479Z" fill="#003243" stroke="#003243"></path><path d="M706 221L797 93L674 73Z" fill="#03192a" stroke="#03192a"></path><path d="M823 313L800 213L709 315Z" fill="#005d62" stroke="#005d62"></path><path d="M802 436L823 313L702 379Z" fill="#01293b" stroke="#01293b"></path><path d="M729 0L636 0L674 73Z" fill="#003a4a" stroke="#003a4a"></path><path d="M674 73L636 0L586 111Z" fill="#03192a" stroke="#03192a"></path><path d="M97 226L61 312L199 310Z" fill="#005d62" stroke="#005d62"></path><path d="M766 501L900 505L802 436Z" fill="#03192a" stroke="#03192a"></path><path d="M693 600L761 600L766 501Z" fill="#01293b" stroke="#01293b"></path><path d="M0 471L76 531L89 406Z" fill="#00545d" stroke="#00545d"></path><path d="M89 406L76 531L181 510Z" fill="#005d62" stroke="#005d62"></path><path d="M900 132L797 93L800 213Z" fill="#005d62" stroke="#005d62"></path><path d="M800 213L797 93L706 221Z" fill="#003243" stroke="#003243"></path><path d="M97 226L0 277L61 312Z" fill="#003a4a" stroke="#003a4a"></path><path d="M234 63L110 62L216 228Z" fill="#001122" stroke="#001122"></path><path d="M160 0L110 62L234 63Z" fill="#001122" stroke="#001122"></path><path d="M315 0L160 0L234 63Z" fill="#003a4a" stroke="#003a4a"></path><path d="M797 93L729 0L674 73Z" fill="#01293b" stroke="#01293b"></path><path d="M76 531L97 600L181 510Z" fill="#036666" stroke="#036666"></path><path d="M0 224L0 277L97 226Z" fill="#022133" stroke="#022133"></path><path d="M61 312L0 426L89 406Z" fill="#03192a" stroke="#03192a"></path><path d="M0 277L0 426L61 312Z" fill="#036666" stroke="#036666"></path><path d="M76 531L0 600L97 600Z" fill="#001122" stroke="#001122"></path><path d="M0 65L0 224L97 226Z" fill="#036666" stroke="#036666"></path><path d="M900 371L900 312L823 313Z" fill="#01293b" stroke="#01293b"></path><path d="M823 313L900 312L800 213Z" fill="#022133" stroke="#022133"></path><path d="M900 371L823 313L802 436Z" fill="#001122" stroke="#001122"></path><path d="M900 505L900 371L802 436Z" fill="#005d62" stroke="#005d62"></path><path d="M0 426L0 471L89 406Z" fill="#01293b" stroke="#01293b"></path><path d="M900 312L900 186L800 213Z" fill="#004351" stroke="#004351"></path><path d="M797 93L837 0L729 0Z" fill="#005d62" stroke="#005d62"></path><path d="M900 600L900 505L766 501Z" fill="#01293b" stroke="#01293b"></path><path d="M900 186L900 132L800 213Z" fill="#003a4a" stroke="#003a4a"></path><path d="M160 0L63 0L110 62Z" fill="#004351" stroke="#004351"></path><path d="M110 62L0 65L97 226Z" fill="#004b58" stroke="#004b58"></path><path d="M900 132L837 0L797 93Z" fill="#00545d" stroke="#00545d"></path><path d="M63 0L0 65L110 62Z" fill="#004351" stroke="#004351"></path><path d="M0 471L0 600L76 531Z" fill="#036666" stroke="#036666"></path><path d="M761 600L900 600L766 501Z" fill="#001122" stroke="#001122"></path><path d="M63 0L0 0L0 65Z" fill="#022133" stroke="#022133"></path><path d="M900 132L900 0L837 0Z" fill="#003243" stroke="#003243"></path></g></svg>