<?xml version="1.0" encoding="UTF-8" standalone="no"?>
<!-- Created with Inkscape (http://www.inkscape.org/) -->

<svg
   version="1.1"
   id="svg1"
   width="762.88"
   height="152.32001"
   viewBox="0 0 762.88 152.32001"
   xmlns="http://www.w3.org/2000/svg"
   xmlns:svg="http://www.w3.org/2000/svg">
  <defs
     id="defs1" />
  <g
     id="g1">
    <path
       style="fill:#000000"
       d="m 585.63971,141.88612 c -33.99735,-0.0973 -61.91301,-0.27663 -62.03481,-0.39843 -0.20762,-0.20765 2.30613,-5.15921 4.43628,-8.73853 0.52371,-0.88 1.76966,-3.0582 2.76878,-4.84045 l 1.81659,-3.24044 -1.57364,-2.83956 c -0.8655,-1.56175 -2.51235,-4.63955 -3.65966,-6.83955 -1.14732,-2.2 -2.62556,-4.93601 -3.28499,-6.08001 -0.65942,-1.144 -3.03715,-5.5 -5.28385,-9.680004 l -4.08489,-7.6 h -12.92323 c -7.10777,0 -12.92587,-0.108 -12.9291,-0.24 -0.003,-0.132 0.38402,-1.8501 0.86056,-3.81799 l 0.86643,-3.578 15.05944,-0.11647 c 14.46304,-0.11185 15.14182,-0.14411 17.13944,-0.81454 7.20995,-2.41974 12.31391,-9.57219 12.29092,-17.22391 -0.007,-2.16806 -0.15158,-2.88482 -0.88885,-4.39176 -1.02085,-2.08654 -2.84945,-3.78063 -4.95937,-4.59456 -1.35009,-0.52082 -3.11406,-0.58062 -19.7227,-0.66858 l -18.24,-0.0966 -7.2,28.71489 c -3.96,15.793204 -7.24305,28.884024 -7.29566,29.090724 -0.072,0.28277 4.73779,0.43475 19.42692,0.61384 l 19.52259,0.23803 2.62699,4.83886 2.627,4.83886 -1.05025,1.92361 c -0.57764,1.05798 -2.56241,4.73161 -4.41062,8.16361 -1.8482,3.432 -3.52385,6.40691 -3.72366,6.61091 -0.27485,0.2806 -15.3221,0.3023 -61.80331,0.0891 -166.53824,-0.76385 -209.26836,-0.94356 -223.95423,-0.94186 -15.06142,0.002 -15.94252,-0.0295 -15.74476,-0.55815 0.26449,-0.70703 10.41127,-19.6713 13.09883,-24.48163 1.10574,-1.97911 2.63675,-4.82238 3.40225,-6.31838 5.35244,-10.460104 30.64528,-57.970824 31.32748,-58.846314 1.40599,-1.80438 2.64658,-2.27369 6.01038,-2.27369 1.62247,0 3.31469,0.1662 3.76051,0.36932 1.81035,0.82485 1.72342,0.19029 3.656,26.68871 0.99195,13.60109 1.87704,24.80262 1.96686,24.89227 0.0898,0.0897 6.42454,-10.7968 14.07714,-24.19212 7.6526,-13.39532 14.29437,-24.88047 14.75949,-25.52254 1.29822,-1.79214 2.5585,-2.23564 6.35303,-2.23564 3.1441,0 3.28729,0.031 4.15736,0.90111 0.82275,0.82275 0.91797,1.1636 1.09504,3.92 0.22404,3.48766 1.80457,52.186964 1.79861,55.418894 l -0.004,2.16 h -4.28464 -4.28464 l -0.20338,-3.76 c -0.11187,-2.068 -0.56405,-13.408004 -1.00485,-25.200004 -0.44081,-11.792 -0.83969,-21.56749 -0.88642,-21.72332 -0.0467,-0.15583 -6.25717,10.42817 -13.80099,23.52 -7.54383,13.09183 -14.22539,24.342134 -14.84791,25.000674 -1.57148,1.66239 -3.31793,2.26704 -6.09479,2.11013 -2.58681,-0.14616 -3.67343,-0.87549 -4.18414,-2.80831 -0.16555,-0.62654 -1.05206,-11.579174 -1.97002,-24.339174 -0.91796,-12.76 -1.76779,-23.3165 -1.88851,-23.4589 -0.19588,-0.23102 -20.12386,36.64103 -26.16863,48.418904 -1.30977,2.552 -2.50885,4.8006 -2.66464,4.99689 -0.31922,0.40222 20.26166,0.55341 152.79352,1.12244 45.06512,0.19349 81.33632,0.22676 81.46886,0.0747 0.1314,-0.15072 2.94028,-11.18962 6.24196,-24.530874 3.30168,-13.34125 7.01788,-28.20925 8.25823,-33.04 l 2.25518,-8.78318 22.59291,0.0112 c 17.81864,0.009 23.0222,0.10331 24.62441,0.44691 2.89929,0.62177 6.37696,2.44174 8.25567,4.32046 3.21505,3.21505 4.45017,6.82677 4.16573,12.18139 -0.21698,4.08477 -0.78302,6.26805 -2.65487,10.24 -2.92528,6.20731 -7.35077,10.66604 -13.79806,13.90171 -1.27599,0.64037 -2.31998,1.21065 -2.31998,1.26728 0,0.0566 2.27513,4.26278 5.05584,9.34699 2.78071,5.084214 5.75446,10.552934 6.60833,12.152714 l 1.55249,2.90868 48.35167,0.21236 c 26.59342,0.1168 55.36899,0.30669 63.94572,0.42197 l 15.59404,0.2096 2.61987,4.82575 2.61988,4.82574 -1.05025,1.92361 c -0.57764,1.05798 -2.56473,4.73161 -4.41575,8.16361 -1.85103,3.432 -3.50831,6.42 -3.68285,6.64 -0.24015,0.30269 -2.11765,0.38466 -7.71817,0.33696 -4.07045,-0.0347 -35.21683,-0.14267 -69.21417,-0.24 z m 72.75555,-13.13696 c 0.92313,-1.672 1.68279,-3.148 1.68811,-3.28 0.005,-0.132 -7.82848,-0.24 -17.40847,-0.24 h -17.41816 l -1.62184,2.9996 c -0.89201,1.64979 -1.62184,3.08291 -1.62184,3.18473 0,0.33705 3.84222,0.41558 19.35189,0.39552 l 15.35188,-0.0199 z m -90.07909,-0.16 c 0.88063,-1.584 1.6741,-3.06 1.76326,-3.28 0.12813,-0.31618 -2.61576,-0.4 -13.09286,-0.4 H 543.7316 l -0.52167,1.04 c -0.28692,0.572 -1.11135,2.08558 -1.83207,3.36352 l -1.31041,2.32352 13.32379,-0.0835 13.32379,-0.0835 z m 43.74359,-0.0296 c 0.9244,-1.68829 1.63406,-3.11054 1.57702,-3.16056 -0.057,-0.05 -7.28394,-0.14468 -16.05976,-0.21038 l -15.95605,-0.11944 -1.72395,3.16697 c -0.94818,1.74184 -1.72396,3.21784 -1.72396,3.28 0,0.0622 7.24635,0.11303 16.10299,0.11303 h 16.10298 z m -104.3845,-0.45038 c 0.92313,-1.672 1.68278,-3.148 1.68811,-3.28 0.005,-0.132 -8.26048,-0.24 -18.36847,-0.24 h -18.37816 l -1.62184,2.9996 c -0.89201,1.64979 -1.62184,3.08438 -1.62184,3.18799 0,0.31038 5.10647,0.4034 21.27189,0.3875 l 15.35188,-0.0151 z m -91.9989,-0.16 c 0.88053,-1.584 1.67391,-3.06 1.76307,-3.28 0.12835,-0.3167 -3.02708,-0.39965 -15.15213,-0.3983 l -15.31424,0.002 -1.69893,3.19312 -1.69893,3.19312 8.73893,0.0937 c 4.80641,0.0515 11.66896,0.0898 15.2501,0.0852 l 6.51118,-0.008 z m 43.7434,-0.0296 c 0.9244,-1.68829 1.63406,-3.11054 1.57702,-3.16056 -0.0571,-0.05 -7.28394,-0.14468 -16.05976,-0.21038 l -15.95605,-0.11944 -1.72395,3.16697 c -0.94818,1.74184 -1.72396,3.21784 -1.72396,3.28 0,0.0622 7.24634,0.11303 16.10298,0.11303 h 16.10299 z m -125.83665,-0.69038 1.76192,-3.28 -13.70599,0.005 -13.70598,0.005 -1.69292,3.19069 -1.69292,3.1907 10.49292,0.0941 c 5.77111,0.0517 11.90775,0.0897 13.63698,0.0844 l 3.14406,-0.01 z m 40.28763,0.24 1.68645,-3.04 -5.49206,-0.23933 c -3.02064,-0.13162 -9.52075,-0.20362 -14.44469,-0.16 l -8.95261,0.0793 -1.67014,3.04 c -0.91857,1.672 -1.67789,3.14946 -1.68738,3.28326 -0.009,0.13379 6.48328,0.20579 14.42836,0.16 l 14.44561,-0.0833 z m -119.94453,-0.32 c 0.92304,-1.672 1.68019,-3.14958 1.68256,-3.28352 0.002,-0.13393 -6.00406,-0.20593 -13.34761,-0.16 l -13.3519,0.0835 -1.66597,3.04 -1.66596,3.04 12.69787,0.17072 c 6.98382,0.0939 12.98471,0.1659 13.3353,0.16 0.4698,-0.008 1.07881,-0.81022 2.31571,-3.05072 z m 40.9653,0.0266 1.67846,-3.16361 -3.59846,-0.21025 c -1.97914,-0.11563 -8.60918,-0.1658 -14.73341,-0.11147 l -11.13497,0.0988 -1.76404,3.28 -1.76404,3.28 14.81901,-0.005 14.819,-0.005 z m -111.89062,12.78787 c -1.57105,-0.25734 -2.90877,-1.48727 -2.90646,-2.67227 7.5e-4,-0.38618 0.56343,-3.94215 1.2504,-7.90215 0.68698,-3.96 1.19029,-7.26008 1.11848,-7.3335 -0.0718,-0.0734 -4.13788,-0.30033 -9.0357,-0.50423 l -8.90512,-0.37074 -2.12618,-0.99496 c -3.95685,-1.85164 -6.72475,-5.29895 -7.1427,-8.89597 -0.13202,-1.13618 0.27509,-4.20735 1.4479,-10.92268 1.68639,-9.656104 1.81477,-10.657934 1.36576,-10.657934 -1.14341,0 -7.21934,-1.32581 -8.08645,-1.76451 -3.08039,-1.55851 -4.22045,-4.18246 -3.04232,-7.00214 0.245,-0.58635 3.99824,-5.19475 8.34055,-10.2409 4.3423,-5.04614 8.02561,-9.56577 8.18512,-10.04363 0.15951,-0.47785 0.58814,-2.66882 0.95252,-4.86882 2.04957,-12.3746 5.93833,-20.16861 14.05025,-28.16 6.79104,-6.69015 14.69151,-11.21681 24.2546,-13.89694 l 2.94848,-0.82633 30.08803,0.0816 30.08802,0.0816 -4.81206,9.12 c -12.01697,22.77499 -11.60762,22.04543 -12.19356,21.73184 -0.29992,-0.16051 -1.28052,-0.29184 -2.1791,-0.29184 -2.65002,0 -4.88804,1.50598 -5.58793,3.76018 -0.21997,0.70848 -0.28431,0.71696 -3.96198,0.52221 -5.8156,-0.30797 -5.86693,-0.326 -6.29694,-2.21214 -0.44058,-1.93257 -0.85888,-2.73422 -2.2221,-4.25856 l -1.04784,-1.17169 2.35989,-3.62232 2.35989,-3.62232 1.69434,0.21169 c 3.71709,0.46433 6.61438,-1.99861 6.61438,-5.62289 0,-3.25792 -1.89469,-5.42335 -4.9683,-5.67824 -2.26231,-0.18761 -3.09989,0.0524 -4.5135,1.29361 -2.47842,2.17609 -2.73239,5.77524 -0.58154,8.24134 0.35553,0.40765 0.0533,1.0498 -1.98264,4.21238 l -2.40212,3.73142 -1.44559,-0.49256 c -1.93748,-0.66016 -5.57109,-0.42676 -7.32069,0.47024 -1.76554,0.90517 -3.75999,3.14845 -4.49549,5.05633 -0.61892,1.60548 -0.79328,4.12814 -0.38577,5.58123 0.21928,0.78191 -4.8e-4,0.8995 -9.71766,5.20009 l -9.94201,4.40009 -1.11789,-0.98153 c -1.37192,-1.20455 -2.30983,-1.57865 -3.95791,-1.57865 -1.74847,0 -3.15348,0.6535 -4.36042,2.02813 -2.03227,2.31462 -2.03227,5.14912 0,7.46374 2.21279,2.52024 5.78147,2.72137 8.34429,0.4703 0.97641,-0.85764 1.61307,-2.33894 1.79527,-4.177 l 0.17197,-1.73483 9.54645,-4.26517 c 5.25055,-2.34584 9.67558,-4.26517 9.83341,-4.26517 0.15783,0 0.88629,0.65019 1.61879,1.44487 0.73251,0.79468 2.03148,1.76583 2.88659,2.15813 1.31103,0.60144 1.55476,0.8515 1.55476,1.59513 0,0.71667 0.14337,0.88187 0.76531,0.88187 0.54945,0 0.82194,-0.22564 0.9661,-0.8 0.1622,-0.64628 0.39945,-0.80034 1.23469,-0.80178 3.60219,-0.006 7.21659,-2.67384 8.50603,-6.27791 l 0.54108,-1.51234 2.07339,0.0846 c 1.14037,0.0466 3.27533,0.17977 4.74436,0.29602 l 2.67097,0.21136 0.43194,1.28 c 0.24224,0.71785 0.99521,1.78531 1.71448,2.43056 0.72858,0.65361 1.16536,1.27558 1.01125,1.44 -0.14921,0.1592 -5.0585,9.36145 -10.90954,20.44945 -14.0637,26.651374 -19.08119,36.155624 -27.28297,51.680004 l -6.84698,12.96 -7.17006,0.0429 c -3.94353,0.0236 -7.80553,-0.0612 -8.58222,-0.18845 z m 35.32496,-56.371354 c 2.59104,-0.71933 4.67596,-3.92375 4.20082,-6.45645 -0.42825,-2.2828 -2.55354,-4.41777 -4.82121,-4.84319 -2.4177,-0.45356 -5.4466,1.23445 -6.42749,3.58204 -1.23243,2.94962 0.43295,6.48398 3.58475,7.60775 1.52026,0.54205 1.86675,0.55304 3.46313,0.10985 z m -4.22177,-2.3812 c -1.89384,-1.49268 -2.0246,-4.55568 -0.26506,-6.20869 1.05061,-0.98699 3.51227,-1.2491 4.91563,-0.52339 2.59628,1.34259 2.63912,5.73567 0.0689,7.06479 -1.47486,0.76267 -3.51189,0.61907 -4.71946,-0.33271 z m 4.56166,-10.10183 c 0.21561,-0.67932 -0.23984,-1.2249 -1.03111,-1.23515 -0.5823,-0.007 -0.88541,1.30726 -0.37581,1.63015 0.71625,0.45384 1.17872,0.324 1.40692,-0.395 z m 0.52058,-3.64005 c 0.0822,-0.49309 -0.0953,-0.66324 -0.77326,-0.74125 -0.75176,-0.0865 -0.88,0.015 -0.88,0.69653 0,0.49763 0.2107,0.84603 0.56,0.926 0.69113,0.15822 0.95541,-0.0548 1.09326,-0.88128 z m 0.53348,-3.24601 c -0.16599,-0.8704 -1.41941,-0.95544 -1.64017,-0.11127 -0.12921,0.49411 0.0104,0.74824 0.51829,0.94335 0.82886,0.31844 1.2778,-0.0145 1.12188,-0.83208 z m 0.63862,-3.25769 c 0.0916,-0.6467 -0.0127,-0.73018 -0.8,-0.64 -0.66534,0.0762 -0.93329,0.30086 -1.01072,0.8474 -0.0916,0.6467 0.0127,0.73018 0.8,0.64 0.66535,-0.0762 0.93329,-0.30086 1.01072,-0.8474 z m -6.66038,-20.0623 c 0.56092,-0.67586 -0.50838,-1.94573 -1.17355,-1.39369 -0.53389,0.44309 -0.55129,0.99183 -0.0474,1.49569 0.50372,0.50372 0.73426,0.48446 1.22098,-0.102 z m -2.55165,-2.25006 c 0.34009,-0.40978 0.31908,-0.58868 -0.12082,-1.02857 -0.49668,-0.49668 -0.56834,-0.49668 -1.06502,0 -0.43989,0.43989 -0.46091,0.61879 -0.12082,1.02857 0.22643,0.27283 0.52043,0.49606 0.65333,0.49606 0.1329,0 0.4269,-0.22323 0.65333,-0.49606 z m -2.43581,-2.28075 c 0.1152,-0.30019 -0.004,-0.7465 -0.2697,-1.01251 -0.39085,-0.39085 -0.56418,-0.40227 -0.97176,-0.064 -0.86566,0.71843 -0.53399,1.50492 0.66971,1.58806 0.20117,0.0139 0.45846,-0.2163 0.57175,-0.51155 z m -5.76924,-1.68702 c 1.09323,-0.55736 1.29947,-0.57412 1.93562,-0.15729 0.63859,0.41841 0.76715,0.4056 1.24665,-0.12424 0.50096,-0.55356 0.49591,-0.6258 -0.0802,-1.14717 -0.58281,-0.52744 -0.58865,-0.63322 -0.11218,-2.03161 0.41695,-1.22367 0.4376,-1.71843 0.1211,-2.90177 -0.83522,-3.12281 -2.99943,-4.6978 -6.14284,-4.47043 -3.98627,0.28834 -6.4462,4.21231 -4.92422,7.85491 0.66302,1.58683 1.34529,2.30046 2.86779,2.9996 1.66543,0.76477 3.56116,0.75657 5.08828,-0.022 z m -4.64096,-1.70039 c -0.59802,-0.39833 -1.3579,-1.27639 -1.68861,-1.95126 -0.50421,-1.02894 -0.54411,-1.41786 -0.24714,-2.40907 1.4043,-4.68712 8.04843,-3.92389 8.04843,0.92455 0,1.7819 -0.82957,3.04446 -2.44345,3.71878 -1.48955,0.62237 -2.41736,0.55081 -3.66923,-0.283 z M 322.8785,109.63881 c 0.0798,-0.31326 2.65267,-10.613574 5.71749,-22.889574 l 5.57241,-22.32 h 4.24843 4.24843 l -0.22792,0.88 c -0.12535,0.484 -2.68409,10.744 -5.68609,22.8 l -5.45819,21.919914 -4.27982,0.0896 c -3.9687,0.0831 -4.26928,0.0482 -4.13474,-0.48 z m 18.81456,0.0667 c 0,-0.37699 9.46168,-38.609164 10.91426,-44.101674 l 0.32407,-1.22535 17.98083,0.13625 c 19.79423,0.15 19.97426,0.16652 24.13531,2.215 2.71557,1.33687 5.16081,3.98268 6.19152,6.69936 0.68315,1.80062 0.77023,2.52844 0.74176,6.2001 l -0.0323,4.16 -3.32775,13.12 -3.3277,13.119954 -4.08,0.0896 c -3.45562,0.0759 -4.08,0.016 -4.08,-0.39112 0,-0.26437 1.36811,-5.9686 3.04023,-12.676074 1.67213,-6.70748 3.13027,-13.16421 3.24032,-14.3483 0.39749,-4.27676 -1.47764,-7.72555 -5.08789,-9.35783 -1.66225,-0.75154 -1.75757,-0.75684 -15.31932,-0.85204 l -13.64666,-0.0958 -4.53319,18.33579 c -2.49325,10.084694 -4.60596,18.587794 -4.6949,18.895794 -0.14327,0.49613 -0.63372,0.56 -4.30015,0.56 -3.47934,0 -4.13844,-0.077 -4.13844,-0.48369 z m 82.49926,0.14994 c -9.90603,-1.15522 -15.93926,-7.42462 -15.93926,-16.563264 0,-3.10069 1.04447,-8.12819 2.37325,-11.4235 5.44533,-13.5042 18.44158,-19.63971 36.57036,-17.26483 4.20053,0.55027 8.09327,1.36269 8.10227,1.69094 0.0244,0.89033 -1.8118,7.41435 -2.08678,7.41435 -0.19199,0 -1.63832,-0.27716 -3.21408,-0.6159 -4.72059,-1.01481 -8.87041,-1.40124 -13.04747,-1.21498 -4.32913,0.19304 -6.77736,0.73765 -9.69401,2.15642 -6.12346,2.97869 -10.08356,9.41042 -10.14354,16.47446 -0.0378,4.4514 1.35648,7.27516 4.74,9.599714 2.55897,1.75807 4.44877,2.08097 12.14723,2.07556 9.62383,-0.007 12.37231,-0.79265 16.54785,-4.731654 3.73515,-3.52355 3.85788,-3.87747 10.17535,-29.34362 5.85969,-23.62081 6.82529,-27.69095 6.61849,-27.89775 -0.0725,-0.0725 -45.97708,-0.28108 -102.01025,-0.46358 -56.03317,-0.18251 -101.92465,-0.37798 -101.98106,-0.43439 -0.0564,-0.0564 2.31194,-4.61645 5.26301,-10.13342 2.95106,-5.51698 6.09318,-11.4326 6.98247,-13.14584 l 1.61691,-3.11497 27.84,6.3e-4 c 15.312,3.4e-4 52.176,0.14017 81.92,0.31074 65.18056,0.37376 167.1326,0.85756 243.91819,1.15746 l 56.39818,0.22027 1.80741,3.39043 c 0.99408,1.86473 2.21235,4.11045 2.70726,4.99049 l 0.89984,1.60008 -0.8888,1.43992 c -0.48883,0.79196 -1.72942,3.02393 -2.75686,4.95993 -1.02743,1.936 -2.48862,4.64576 -3.24709,6.02169 -1.26527,2.2953 -1.71272,3.85294 -5.42351,18.88 -2.22446,9.00807 -6.16154,24.87431 -8.74907,35.25831 l -4.7046,18.880004 -4.22047,0.0893 c -2.57392,0.0545 -4.22048,-0.0318 -4.22048,-0.22103 0,-0.17067 3.816,-15.602234 8.48,-34.292354 4.664,-18.69012 8.48,-34.16131 8.48,-34.38043 0,-0.54345 -24.13086,-0.73766 -121.47752,-0.9777 l -77.79753,-0.19184 -0.16955,0.74703 c -2.1004,9.25439 -12.6807,50.26384 -13.47808,52.2413 -4.01533,9.957864 -11.81111,15.670684 -22.94327,16.813064 -3.66121,0.37571 -12.16881,0.37512 -15.39479,-10e-4 z M 679.21198,28.269146 c 0.9234,-1.672 1.6794,-3.148 1.68,-3.28 6e-4,-0.132 -8.26649,-0.24 -18.3713,-0.24 H 644.1483 l -1.62762,3.01922 c -0.89519,1.66057 -1.62762,3.09936 -1.62762,3.19729 0,0.12946 30.16194,0.4239 36,0.35143 0.47412,-0.006 1.07518,-0.79591 2.31892,-3.04794 z m -48.02956,-0.56 1.76261,-3.28 h -16.16414 -16.16415 l -1.62184,2.99961 c -0.89201,1.64978 -1.62184,3.08225 -1.62184,3.18327 0,0.34612 3.37823,0.42241 17.70338,0.39978 l 14.34337,-0.0227 z m -85.73744,-0.08 c 0.92372,-1.672 1.68142,-3.14947 1.68379,-3.28326 0.002,-0.1338 -6.48877,-0.2058 -14.42474,-0.16 l -14.42902,0.0833 -1.68603,3.04 -1.68602,3.04 5.63505,0.17367 c 3.09928,0.0955 9.59335,0.16752 14.43127,0.16 l 8.79622,-0.0137 z m 41.99539,0.1225 c 0.90439,-1.69263 1.60123,-3.1136 1.54852,-3.15772 -0.0527,-0.0441 -6.90592,-0.13524 -15.22937,-0.2025 l -15.13354,-0.12228 -1.76546,3.28 -1.76547,3.28 h 15.35049 15.35048 z m -121.02839,-0.4425 c 0.9234,-1.672 1.6794,-3.148 1.68,-3.28 5.9e-4,-0.132 -6.59726,-0.24 -14.6619,-0.24 H 438.7671 l -1.65702,3.02631 c -0.91136,1.66447 -1.65702,3.10186 -1.65702,3.19421 0,0.18539 11.30397,0.36253 22.24,0.34851 l 7.04,-0.009 z m 38.7213,0.10461 c 0.92412,-1.69997 1.64412,-3.12294 1.6,-3.16217 -0.0441,-0.0392 -6.12822,-0.17267 -13.52022,-0.29654 l -13.44,-0.22522 -0.92294,1.70966 c -0.50762,0.94031 -1.34619,2.46566 -1.86349,3.38966 l -0.94054,1.68 13.70349,-0.002 13.70348,-0.002 z m -79.53119,-0.34461 1.70677,-3.12 -6.0879,-0.23847 c -3.34834,-0.13115 -9.59302,-0.20315 -13.87706,-0.16 l -7.78915,0.0785 -1.68592,3.04 -1.68592,3.04 5.47507,0.17148 c 3.0113,0.0943 9.24659,0.20232 13.85621,0.24001 l 8.38113,0.0685 z m -77.91012,-0.4 c 0.92341,-1.672 1.67941,-3.148 1.68,-3.28 6e-4,-0.132 -6.59725,-0.24 -14.66189,-0.24 H 320.0471 l -1.65702,3.02631 c -0.91136,1.66447 -1.65702,3.10186 -1.65702,3.19421 0,0.18539 11.30397,0.36253 22.24,0.34851 l 7.04,-0.009 z m 38.72131,0.10461 c 0.92412,-1.69997 1.64412,-3.12294 1.6,-3.16217 -0.0441,-0.0392 -6.12822,-0.17267 -13.52022,-0.29654 l -13.44,-0.22522 -0.92294,1.70966 c -0.50762,0.94031 -1.34619,2.46566 -1.86349,3.38966 l -0.94054,1.68 13.70349,-0.002 13.70348,-0.002 z m -79.53098,-0.34461 1.70697,-3.12 -4.8081,-0.19765 c -2.64446,-0.1087 -8.62602,-0.2167 -13.29236,-0.24 l -8.48425,-0.0423 -1.59575,2.96 c -0.87766,1.628 -1.64231,3.14 -1.69921,3.36 -0.0815,0.31524 2.71161,0.4 13.18113,0.4 h 13.28459 z m 254.97076,83.549944 c -8.94819,-0.88787 -15.02989,-5.62094 -16.6483,-12.956484 -0.4975,-2.25498 -0.25269,-7.69358 0.46604,-10.35346 2.44626,-9.05297 10.16541,-17.15015 19.34156,-20.28879 4.22571,-1.44537 5.99154,-1.6691 14.62167,-1.85254 12.20635,-0.25946 15.54414,0.38305 18.218,3.50686 4.53511,5.29825 1.31684,16.62128 -5.70402,20.06882 -3.59275,1.76419 -5.11351,1.91397 -19.49495,1.9201 -7.172,0.003 -13.03919,-0.10245 -13.03821,-0.23445 9.8e-4,-0.132 0.13576,-0.744 0.29951,-1.36 0.16375,-0.616 0.4548,-1.72567 0.64677,-2.46594 l 0.34903,-1.34595 12.39145,-0.0941 12.39145,-0.0941 1.80015,-0.88404 c 2.13843,-1.05016 3.27183,-2.57226 3.98328,-5.34935 0.91893,-3.58693 -0.50209,-6.0288 -3.9215,-6.73866 -1.19623,-0.24834 -4.36246,-0.3265 -9.50771,-0.23471 -7.28963,0.13005 -7.85512,0.18427 -10.27422,0.98502 -7.64572,2.53085 -13.34343,9.52486 -14.18904,17.41723 -0.79187,7.39083 2.98388,12.257644 10.24067,13.199844 1.29161,0.1677 7.91169,0.30936 14.71129,0.31479 l 12.36291,0.01 -0.86295,3.44 -0.86294,3.44 -13.09997,0.0305 c -7.20498,0.0168 -13.60397,-0.0195 -14.21997,-0.0806 z m 57.28,-0.12734 c -6.56964,-0.80003 -12.16746,-4.46865 -14.4387,-9.4626 -1.30889,-2.877984 -1.79417,-6.748524 -1.28888,-10.280004 1.94251,-13.57621 13.09166,-23.81604 27.6561,-25.40048 4.70088,-0.5114 18.50266,-0.20179 20.55148,0.46103 5.96888,1.931 8.14648,7.38059 5.77368,14.44903 -1.45574,4.33658 -3.46573,6.76432 -7.13034,8.61231 -3.23545,1.63158 -5.02534,1.79811 -19.32582,1.79811 -12.34638,0 -13.11075,-0.0331 -12.953,-0.56 0.0922,-0.308 0.40741,-1.532 0.70047,-2.72 l 0.53282,-2.16 h 11.91024 c 12.94799,0 13.86622,-0.10167 16.06504,-1.77879 1.62606,-1.24026 2.80033,-3.92508 2.81521,-6.43665 0.0138,-2.33574 -0.62551,-3.4369 -2.56895,-4.42456 -1.13046,-0.5745 -2.01806,-0.65079 -8.67257,-0.74548 -8.95848,-0.12748 -11.39224,0.22282 -15.44592,2.22317 -3.76254,1.85667 -7.39655,5.46027 -9.22776,9.15051 -4.19158,8.44687 -2.48258,16.348 4.17282,19.292004 2.3762,1.05111 5.42602,1.25946 18.58832,1.26992 9.81032,0.008 12.40277,0.0943 12.28513,0.40988 -0.082,0.22 -0.48576,1.804 -0.89722,3.52 l -0.74811,3.12 -13.13702,-0.0421 c -7.22536,-0.0231 -14.07302,-0.15599 -15.21702,-0.2953 z M 185.93936,66.514716 c -2.12268,-0.92279 -2.94308,-3.79001 -1.6781,-5.86483 0.65197,-1.06935 2.27767,-1.98074 3.53316,-1.98074 1.92971,0 4.13864,2.22034 4.13864,4.16 0,1.22832 -1.20563,3.09179 -2.3524,3.63597 -1.3339,0.63298 -2.27003,0.64573 -3.6413,0.0496 z m 152.03021,-10.12268 c -0.76535,-0.3898 -1.39651,-1.56349 -1.39651,-2.59691 0,-1.25772 1.29097,-3.40043 2.50271,-4.15391 1.62927,-1.01312 5.15656,-1.05503 6.13864,-0.0729 1.48726,1.48726 0.77456,4.78802 -1.37158,6.35225 -1.03019,0.75087 -4.74002,1.04869 -5.87326,0.47151 z m -119.00841,-1.43212 c -3.09267,-1.09809 -4.9481,-3.78951 -4.9481,-7.17756 0,-3.3103 1.57724,-5.75397 4.53514,-7.02642 4.92269,-2.11768 10.38316,1.14324 10.76549,6.42902 0.40735,5.63154 -4.98451,9.68093 -10.35253,7.77496 z m 24.74262,-2.61077 c -0.86294,-0.98929 -1.21072,-1.92678 -1.21072,-3.26366 0,-1.03204 0.22216,-1.54816 1.05985,-2.46223 0.88633,-0.96716 1.31855,-1.17827 2.64,-1.28946 1.92667,-0.16213 2.73095,0.24624 2.13931,1.08624 -0.22047,0.31301 -1.08096,1.90111 -1.91222,3.52911 -0.83126,1.628 -1.67256,2.96 -1.86956,2.96 -0.197,0 -0.578,-0.252 -0.84666,-0.56 z m -10.48434,-21.10927 c -1.29033,-0.66129 -2.56638,-2.4057 -2.56638,-3.50833 0,-2.37271 1.96449,-4.25909 4.43765,-4.2612 1.19764,-10e-4 1.57543,0.17658 2.64,1.24115 1.04564,1.04565 1.24235,1.4535 1.24235,2.57589 0,3.27388 -3.02415,5.35134 -5.75362,3.95249 z"
       id="path1" />
  </g>
</svg>
