<?xml version="1.0" encoding="UTF-8" standalone="no"?>
<!-- Created with Inkscape (http://www.inkscape.org/) -->

<svg
   version="1.1"
   id="svg1"
   width="298.88"
   height="295.04001"
   viewBox="0 0 298.88 295.04001"
   xmlns="http://www.w3.org/2000/svg"
   xmlns:svg="http://www.w3.org/2000/svg">
  <defs
     id="defs1" />
  <g
     id="g1">
    <path
       style="fill:#D3D4D4"
       d="m 147.35683,270.27922 c -2.29599,-0.35665 -6.22891,-1.56247 -8,-2.45278 -1.77499,-0.89227 -2.21001,-0.97126 -5.76,-1.04591 -5.21573,-0.10968 -9.80554,-1.25842 -13.18575,-3.30013 -2.16617,-1.30842 -1.71931,-2.67931 0.52817,-1.62035 1.43159,0.67454 5.70521,1.78627 8.01758,2.08568 0.968,0.12534 3.00587,0.22124 4.5286,0.21311 6.39092,-0.0341 10.41889,-1.8689 11.00906,-5.01478 0.43314,-2.30883 0.28546,-2.39712 -6.17819,-3.69358 -1.71571,-0.34414 -5.49547,-1.12101 -8.39947,-1.72639 -2.904,-0.60538 -7.40154,-1.5415 -9.99453,-2.08027 -2.593,-0.53877 -5.27488,-1.26545 -5.95975,-1.61484 -1.55893,-0.79531 -2.79169,-2.23728 -3.84994,-4.50332 -1.12292,-2.40453 -1.16342,-6.46001 -0.0866,-8.67251 1.84625,-3.79345 5.44082,-5.02281 8.84802,-3.02606 4.48424,2.62794 6.04271,10.04559 3.00648,14.30959 -0.33839,0.47522 -0.50346,0.93314 -0.36682,1.01758 0.13663,0.0845 1.32724,0.37775 2.64579,0.65177 1.31855,0.27403 5.56536,1.15887 9.43736,1.96633 3.872,0.80745 7.688,1.59722 8.48,1.75505 2.32896,0.46411 13.31057,2.72506 21.76,4.48007 4.312,0.89563 9.26857,1.91238 11.01459,2.25942 3.54741,0.70511 4.10054,1.00748 3.96159,2.16563 -0.0911,0.7597 -0.2804,0.83214 -3.61618,1.38397 -4.09502,0.67744 -5.16881,1.03788 -9.92,3.32985 -5.14972,2.48424 -7.45177,3.06392 -12.64,3.18291 -2.376,0.0545 -4.752,0.032 -5.28,-0.05 z m 7.38123,-2.68355 c 2.98367,-0.51854 5.61992,-1.74361 6.48659,-3.01435 0.97119,-1.42398 1.25998,-3.41165 0.57792,-3.97771 -1.69141,-1.40374 -7.42419,-0.29226 -13.59727,2.63626 -2.40266,1.13983 -4.97575,2.24981 -5.71799,2.46662 -0.74224,0.2168 -1.28274,0.50224 -1.20112,0.63431 0.16093,0.2604 4.09708,1.16755 5.91064,1.36222 2.38451,0.25594 5.72438,0.2084 7.54123,-0.10735 z m 57.5527,-4.82886 c -3.68166,-2.30936 -11.98042,-7.49939 -18.44168,-11.5334 -7.44844,-4.65033 -12.00047,-7.68946 -12.43829,-8.30433 -0.85405,-1.1994 -1.57396,-3.52118 -1.57396,-5.0762 0,-2.83255 1.82943,-6.41576 3.92968,-7.69688 4.50905,-2.75045 9.38622,1.38615 8.75497,7.42559 -0.25742,2.46286 -0.83751,3.76346 -2.46703,5.53129 -0.74316,0.80623 -1.29414,1.51986 -1.22441,1.58585 0.31642,0.29943 17.68257,11.05578 17.73663,10.98582 0.19406,-0.2512 9.43016,-25.10328 9.43016,-25.37426 0,-0.18081 -4.716,-3.26852 -10.48,-6.86159 -5.764,-3.59306 -10.85667,-6.80443 -11.31705,-7.13637 -2.11288,-1.52341 -3.19214,-5.40808 -2.38155,-8.57212 1.21136,-4.72842 4.78858,-7.26733 8.33245,-5.91391 2.76319,1.05527 4.1876,3.80941 3.93902,7.61623 -0.17533,2.68509 -1.03184,4.64416 -2.73599,6.25795 -0.61264,0.58016 -1.06056,1.09968 -0.99538,1.15449 0.0652,0.0548 6.79334,4.26014 14.95147,9.34518 8.15813,5.08503 14.89721,9.4038 14.97573,9.59728 0.0785,0.19347 -2.17625,6.67347 -5.0106,14.4 -6.24604,17.02689 -6.14998,16.76823 -6.22765,16.76823 -0.0344,0 -3.07486,-1.88948 -6.75652,-4.19885 z m 4.58783,-16.20904 c 2.50897,-6.81566 4.56097,-12.56037 4.56,-12.76601 -0.002,-0.37237 -2.17357,-1.88438 -2.38813,-1.66261 -0.19056,0.19698 -9.45363,24.96027 -9.45363,25.27273 0,0.33004 1.90645,1.56501 2.4,1.55469 0.176,-0.004 2.37279,-5.58314 4.88176,-12.3988 z m -53.36635,1.99303 c -2.05899,-2.11253 -3.84928,-3.34807 -7.76135,-5.35636 -1.89526,-0.97295 -4.17719,-2.32245 -5.07095,-2.99889 -3.52828,-2.67039 -7.73958,-9.2303 -8.60652,-13.40634 -0.8075,-3.88971 0.26665,-4.32192 1.54967,-0.62355 1.84757,5.32572 6.01374,10.79141 9.5411,12.51718 1.55792,0.76222 1.87624,0.8151 2.95715,0.49126 0.66622,-0.19961 1.47117,-0.65007 1.78879,-1.00104 0.56298,-0.62208 0.44665,-0.90564 -4.6288,-11.28276 -2.86346,-5.85456 -5.40526,-11.2841 -5.64845,-12.06565 -0.73922,-2.37569 0.0286,-4.90871 2.20289,-7.26757 1.80991,-1.96352 3.49327,-2.79458 5.68106,-2.80469 4.96058,-0.0229 6.76022,5.10871 3.48282,9.9312 -1.16432,1.71323 -3.73492,3.35696 -5.57406,3.56426 -0.79651,0.0898 -1.42876,0.3287 -1.42876,0.53992 0,0.20838 3.25677,7.05898 7.23726,15.22355 7.30645,14.9866 7.56212,15.64709 6.16385,15.92328 -0.24767,0.0489 -1.09623,-0.57379 -1.8857,-1.3838 z m -55.33831,-26.23991 c -5.13066,-0.58822 -6.59873,-0.74617 -8.9771,-0.96585 -1.144,-0.10567 -2.44,-0.25175 -2.88,-0.32463 -0.44,-0.0729 -1.99286,-0.22662 -3.4508,-0.34167 -1.45795,-0.11504 -2.709,-0.30331 -2.78012,-0.41839 -0.0711,-0.11507 0.007,-2.14546 0.17275,-4.51196 0.41385,-5.89534 1.48068,-20.80995 2.07025,-28.94274 1.09126,-15.05334 1.4501,-20.04997 1.7466,-24.32 1.22478,-17.63905 1.85713,-25.80247 2.01056,-25.9559 0.25311,-0.25311 22.86872,2.23394 23.82375,2.61991 1.50827,0.60956 2.32437,2.14947 2.32582,4.38858 6.5e-4,1.01893 -0.50648,8.86693 -1.12697,17.44 -0.62049,8.57308 -1.82566,25.33996 -2.67816,37.25973 -1.68629,23.57791 -1.54604,22.65825 -3.65107,23.94177 -1.15749,0.70577 -1.52914,0.71315 -6.60551,0.13115 z m -51.53694,-0.18474 c -1.79289,-0.71492 -2.15756,-1.46686 -5.08519,-10.48547 -4.25846,-13.11828 -4.27717,-13.17949 -4.08671,-13.36995 0.15395,-0.15395 1.50584,0.52594 7.09174,3.56658 0.704,0.38321 3.75793,2.03077 6.78652,3.66124 l 5.50652,2.96449 1.63611,5.12201 c 0.89987,2.8171 1.56694,5.19119 1.48237,5.27575 -0.32065,0.32065 -11.16254,3.62392 -11.83084,3.60457 -0.38538,-0.0111 -1.06061,-0.1638 -1.50052,-0.33922 z m 22.09357,-2.89576 c -3.07245,-0.33584 -5.61717,-0.64151 -5.65494,-0.67928 -0.15433,-0.15433 0.57775,-10.02721 0.7811,-10.53394 0.12106,-0.30166 3.60411,-3.4308 7.74011,-6.95363 5.40573,-4.60433 7.55198,-6.257 7.63373,-5.87822 0.0626,0.28981 -0.0402,2.55495 -0.22831,5.03364 -0.18812,2.47868 -0.58925,7.9267 -0.8914,12.1067 l -0.54936,7.6 -1.62233,-0.0423 c -0.89228,-0.0233 -4.13615,-0.31711 -7.2086,-0.65294 z M 219.3919,197.84132 c -5.96404,-16.97757 -5.95137,-16.91911 -4.23098,-19.51879 2.40449,-3.63343 7.73774,-4.32873 9.34612,-1.21847 1.64955,3.18988 -1.47562,8.05227 -5.46435,8.50186 -0.79522,0.0896 -1.44586,0.27576 -1.44586,0.41362 0,0.47198 6.47014,18.70566 6.74037,18.9952 0.24531,0.26284 17.57963,-9.86707 17.57963,-10.27327 0,-0.0921 -1.81129,-5.29937 -4.02509,-11.57165 -4.47936,-12.69121 -4.57108,-13.18824 -2.8999,-15.71357 2.41324,-3.64665 7.74358,-4.34872 9.3552,-1.23219 1.64955,3.18988 -1.47562,8.05227 -5.46435,8.50186 -0.79522,0.0896 -1.44586,0.28124 -1.44586,0.4258 0,0.14456 1.85955,5.56184 4.13233,12.03839 2.27278,6.47655 4.22241,12.08671 4.33252,12.46703 0.176,0.60796 -0.27486,0.97881 -3.73233,3.06993 -2.16288,1.30813 -6.93415,4.20096 -10.60282,6.42851 -3.66867,2.22754 -6.69438,4.05008 -6.7238,4.05008 -0.0294,0 -2.4823,-6.91395 -5.45083,-15.36434 z m -155.87507,6.13727 c -2.04321,-1.13278 -5.57602,-3.04704 -9.44,-5.11508 -1.672,-0.89486 -4.18203,-2.24597 -5.57783,-3.00244 l -2.53784,-1.37541 -0.71694,-2.24 c -0.39432,-1.23201 -1.64792,-5.08401 -2.78579,-8.56001 -1.13787,-3.476 -1.93664,-6.32 -1.77506,-6.32 0.16159,0 4.60384,2.32263 9.87166,5.1614 l 9.57786,5.16139 0.4699,1.47861 c 0.25845,0.81323 1.48783,4.60744 2.73197,8.43158 1.24414,3.82414 2.26207,7.02814 2.26207,7.12 0,0.31678 -0.48513,0.14417 -2.08,-0.74004 z m 10.55364,-0.89918 c 0.0831,-0.50256 0.38777,-4.44175 0.67696,-8.75375 0.30444,-4.53924 0.67813,-8.03175 0.88761,-8.29544 0.19898,-0.25048 3.31379,-2.97182 6.92179,-6.04741 3.608,-3.07559 6.88343,-5.88321 7.27874,-6.23916 0.39531,-0.35595 0.79989,-0.56603 0.89908,-0.46685 0.17351,0.17352 -0.63403,13.24759 -1.00626,16.29133 -0.18099,1.47997 -0.19374,1.49315 -7.51554,7.7697 -4.03383,3.45798 -7.55008,6.37005 -7.81388,6.47128 -0.37572,0.14418 -0.44689,-0.0139 -0.3285,-0.7297 z m 121.09796,-23.53374 c -6.8532,-14.10597 -7.48963,-15.55804 -7.46854,-17.04 0.0391,-2.75182 1.82404,-5.34092 4.43337,-6.43091 3.16291,-1.32124 6.26357,0.86038 6.26357,4.40703 0,3.12055 -2.7066,6.35272 -5.72373,6.83518 -0.72395,0.11577 -1.31627,0.2638 -1.31627,0.32896 0,0.0652 2.88395,6.05263 6.40877,13.30548 3.52482,7.25286 6.33733,13.37314 6.25004,13.60063 -0.0873,0.22749 -0.42802,0.41362 -0.75717,0.41362 -0.47267,0 -2.17294,-3.24079 -8.09004,-15.41999 z m -146.36062,-0.66912 -9.58903,-5.1909 -2.70926,-8.39504 c -1.4901,-4.61728 -2.62999,-8.47432 -2.5331,-8.57121 0.0969,-0.0969 3.75912,1.75333 8.13829,4.1116 4.37916,2.35827 8.69222,4.66887 9.58457,5.13466 l 1.62246,0.84689 2.66476,8.23655 c 1.46561,4.53011 2.73092,8.41655 2.81178,8.63655 0.0809,0.22 0.0236,0.39591 -0.12721,0.3909 -0.15083,-0.005 -4.5893,-2.34501 -9.86326,-5.2 z m 26.89802,1.9291 c 0.2174,-2.55837 1.091,-15.114 1.091,-15.68015 0,-0.48989 15.30644,-13.84008 15.5681,-13.57841 0.0737,0.0737 -0.15526,4.07705 -0.50883,8.8963 l -0.64287,8.76226 -1.47525,1.35646 c -2.02032,1.85765 -13.87311,11.92354 -14.0402,11.92354 -0.0741,0 -0.0705,-0.756 0.008,-1.68 z m -33.309,-22.5145 c -5.104,-2.74161 -9.44282,-5.15141 -9.64182,-5.35512 -0.199,-0.20371 -0.828,-1.78975 -1.39777,-3.52453 -0.77931,-2.37277 -0.99564,-3.51176 -0.87324,-4.59767 0.2613,-2.31829 0.9982,-2.79944 7.29249,-4.76168 3.04596,-0.94957 5.71758,-1.7265 5.93693,-1.7265 0.22103,0 0.82358,1.3196 1.35159,2.96 2.41454,7.50138 6.8725,21.24011 7.0088,21.6 0.0833,0.22 0.0281,0.39781 -0.12274,0.39512 -0.15083,-0.003 -4.45024,-2.24801 -9.55424,-4.98962 z m 218.24,4.3495 c -7.19,-1.30491 -13.69209,-6.24974 -17.26232,-13.12798 l -1.41858,-2.73299 -4.09955,-0.57639 c -2.25475,-0.31702 -4.39231,-0.64295 -4.75012,-0.72428 -0.53883,-0.12249 -0.75183,0.13367 -1.24001,1.49125 -0.32418,0.90153 -1.14277,2.33918 -1.81909,3.19479 -5.70654,7.2193 -17.16989,5.95655 -21.24536,-2.3403 -0.74652,-1.51977 -1.19802,-2.97455 -1.33197,-4.29176 -0.14622,-1.43793 -0.34605,-2.03372 -0.71782,-2.14014 -0.28335,-0.0811 -2.67518,-0.46255 -5.31518,-0.84764 -5.70196,-0.83172 -7.57977,-1.46814 -9.6132,-3.25803 -2.09368,-1.84294 -3.01967,-3.93114 -3.02367,-6.8187 -0.005,-3.91799 1.8851,-6.64977 5.75687,-8.31854 4.96179,-2.13859 9.92,0.28151 9.92,4.84193 0,1.34205 -0.14552,1.64352 -1.39789,2.89589 -1.38402,1.38402 -1.94918,1.57977 -4.04211,1.40003 -2.73115,-0.23454 -4.57524,-3.03165 -3.82807,-5.80643 0.19257,-0.71517 0.27329,-1.37716 0.17937,-1.47108 -0.36929,-0.36929 -2.19263,0.70866 -3.21088,1.89825 -3.24805,3.79462 -1.90322,9.13942 2.91202,11.57331 1.041,0.52618 10.9121,2.24891 11.8381,2.06602 0.32927,-0.065 0.67997,-0.74231 0.96428,-1.86221 1.00997,-3.97823 3.51645,-7.97203 6.31908,-10.06874 3.24276,-2.42598 6.38473,-3.42367 10.77259,-3.42069 5.04612,0.003 8.75012,1.05195 12.33504,3.49179 4.54554,3.09364 8.12303,8.34071 10.68083,15.66548 l 1.0151,2.90694 2.61127,0.37044 c 8.94138,1.26845 15.58202,4.86962 19.14905,10.3844 1.36617,2.11216 1.51148,3.02942 0.60924,3.84594 -1.55715,1.4092 -7.42954,2.38152 -10.74702,1.77944 z m 3.6,-3.05465 c 0.396,-0.44882 0.72,-1.11024 0.72,-1.46983 0,-2.23403 -3.74673,-6.30808 -7.42127,-8.0696 -2.31115,-1.10793 -7.47618,-2.29045 -7.78955,-1.7834 -0.0838,0.13558 0.45901,1.4471 1.20622,2.9145 1.82488,3.58372 5.9629,7.86021 8.5646,8.8512 2.17121,0.82702 3.72848,0.6809 4.72,-0.44287 z m -41.97082,-10.1649 c 1.37273,-0.72787 2.60671,-1.99608 3.33914,-3.43174 l 0.64792,-1.27003 -0.72812,-0.30229 c -0.95958,-0.3984 -15.90917,-2.62087 -16.24273,-2.41472 -0.31709,0.19597 0.172,2.48407 0.7774,3.63695 0.59589,1.13475 2.64344,3.04797 3.98616,3.72465 2.19889,1.10816 6.18582,1.13589 8.22023,0.0572 z m 19.01082,-4.84814 c 0,-0.81794 -1.5155,-4.54179 -3.09806,-7.61248 -1.86313,-3.61509 -5.63022,-7.62255 -8.42194,-8.95934 -3.74411,-1.79285 -8.70589,-1.75091 -12.41981,0.10495 -3.36927,1.68365 -6.22006,5.41725 -7.54556,9.88221 -0.28454,0.95845 -0.40873,1.84749 -0.27598,1.97565 0.13274,0.12815 3.98535,0.79214 8.56135,1.47554 l 8.32,1.24253 0.0984,-1.58643 c 0.22298,-3.59514 -2.46832,-6.12781 -6.46681,-6.08564 -1.07337,0.0113 -2.5137,0.25987 -3.20072,0.55234 -1.58377,0.67422 -1.88322,0.40169 -0.65836,-0.59919 1.99878,-1.63326 3.65703,-2.20345 6.38749,-2.19634 2.16879,0.006 2.84632,0.14795 4.43359,0.93116 3.13723,1.54799 5.15443,4.4884 5.52744,8.05716 l 0.20423,1.954 3.71737,0.53622 c 2.04456,0.29492 3.86137,0.58428 4.03737,0.64302 0.63766,0.21283 0.8,0.14883 0.8,-0.31536 z M 77.25948,158.56565 c 0.30725,-3.65852 0.79022,-10.24135 1.13279,-15.44 0.17977,-2.728 0.41686,-5.73149 0.52688,-6.67442 l 0.20003,-1.71441 2.75882,0.21943 c 1.51736,0.12069 3.19083,0.27612 3.71883,0.3454 0.528,0.0693 2.47109,0.28511 4.31798,0.47962 1.84688,0.19452 3.4201,0.41579 3.49603,0.49173 0.0759,0.0759 -0.0374,2.69285 -0.25181,5.81536 l -0.38988,5.67729 -1.4808,1.28 c -6.3234,5.4659 -13.73699,11.66973 -13.95089,11.67437 -0.14266,0.003 -0.17775,-0.96637 -0.078,-2.15437 z m 57.92066,-27.68 c 0.12427,-1.452 0.34676,-2.76469 0.49442,-2.9171 0.14767,-0.15241 2.40459,-0.69875 5.01538,-1.21408 2.61079,-0.51533 4.96289,-0.99337 5.22689,-1.06231 0.264,-0.0689 2.208,-0.48458 4.32,-0.92364 14.85477,-3.08817 24.52409,-5.91374 34.19542,-9.99258 1.40872,-0.59413 2.62232,-1.01921 2.69689,-0.94464 0.20824,0.20824 -0.6264,6.98292 -0.93489,7.58834 -0.14965,0.2937 -0.74129,0.63085 -1.31476,0.74924 -0.57346,0.11839 -5.14666,1.15735 -10.16266,2.3088 -5.016,1.15146 -9.984,2.28837 -11.04,2.52647 -1.056,0.2381 -4.08,0.92396 -6.72,1.52414 -2.64,0.60017 -7.752,1.76078 -11.36,2.57913 -3.608,0.81835 -7.37278,1.69723 -8.36619,1.95307 -0.9934,0.25584 -1.912,0.46516 -2.04132,0.46516 -0.12932,0 -0.13345,-1.188 -0.009,-2.64 z m -2.58313,1.64624 c -0.19521,-0.24543 -3.20176,-4.98224 -6.68122,-10.52624 -11.06358,-17.62816 -19.43297,-30.940283 -25.14819,-39.999997 -5.04906,-8.003737 -5.54396,-8.915821 -5.46942,-10.08 0.0451,-0.704 0.43671,-4.181467 0.8703,-7.727704 0.4336,-3.546236 0.78835,-6.637094 0.78835,-6.868571 0,-0.692947 0.66867,0.189884 3.42068,4.516274 4.02351,6.325296 28.02924,43.804338 31.52782,49.222938 l 3.16564,4.90294 -1.05952,8.5033 c -0.79941,6.41586 -1.14664,8.39375 -1.41444,8.05706 z m 3.28787,-6.9285 c -0.45544,-0.73691 0.95627,-1.19287 8.25596,-2.66656 13.65104,-2.75593 19.31735,-4.40954 27.91207,-8.14564 3.96157,-1.72209 9.4346,-4.42598 11.8941,-5.87616 0.92289,-0.54415 1.85165,-0.98759 2.0639,-0.98541 0.37341,0.004 1.82845,1.97601 1.82347,2.47155 -0.003,0.2645 -1.27604,0.82873 -10.07755,4.46529 -11.56172,4.77702 -19.50584,6.93803 -36.8,10.01053 -2.112,0.37523 -4.07988,0.75253 -4.37307,0.83846 -0.29319,0.0859 -0.60768,0.0355 -0.69888,-0.11206 z m 0.4897,-3.99774 c 0.0877,-0.61758 0.44365,-0.79297 2.50225,-1.23301 3.88764,-0.83099 9.484,-2.39984 13.6,-3.81253 9.10291,-3.12429 16.37858,-7.58585 30.33251,-18.600373 l 3.13251,-2.47264 1.20345,1.33928 c 0.66189,0.7366 1.88727,2.155 2.72306,3.152001 l 1.51961,1.812722 -2.10517,1.50222 c -8.23368,5.87543 -21.81287,12.07158 -32.62677,14.8875 -4.7963,1.24895 -18.61698,4.14483 -19.78134,4.14483 -0.44165,0 -0.57509,-0.19211 -0.50011,-0.72 z m 0.39379,-2.84605 c -0.0984,-0.15925 -0.0848,-0.71818 0.0302,-1.24205 0.15173,-0.6908 0.44398,-1.00478 1.06371,-1.14278 5.35733,-1.19302 16.54967,-5.73208 20.99978,-8.51648 1.93106,-1.20826 5.27119,-3.80924 8.3107,-6.47162 4.43157,-3.881703 8.90782,-9.635313 11.53778,-14.830251 l 1.17919,-2.329233 -4.72884,-7.590767 c -4.91875,-7.895625 -15.12088,-24.31457 -23.0439,-37.08604 -2.53011,-4.0784 -4.6002,-7.479453 -4.6002,-7.557895 0,-0.07844 0.65178,-0.794402 1.4484,-1.591021 l 1.4484,-1.4484 5.33406,7.886294 c 13.14403,19.433195 27.28408,40.237271 32.00914,47.094647 1.452,2.107257 2.64,3.953777 2.64,4.103383 0,0.4606 -8.64055,8.72874 -11.50879,11.01276 -10.01008,7.971133 -18.57682,12.822413 -28.81121,16.315543 -4.88126,1.66603 -13.08357,3.75778 -13.30846,3.39391 z m -8.62634,-17.05284 c -11.87745,-18.5711 -11.65682,-18.226454 -21.07988,-32.927561 -4.71923,-7.36255 -8.45552,-13.496643 -8.30286,-13.631318 0.15265,-0.134675 1.35754,-0.428819 2.67754,-0.653653 4.02348,-0.685315 9.90431,-2.327638 13.76,-3.842719 6.20202,-2.437062 13.38782,-9.289644 18.23322,-17.387717 1.93168,-3.228401 4.33217,-8.508574 4.65814,-10.246152 0.12166,-0.648482 0.31663,-1.238039 0.43327,-1.310127 0.11664,-0.07209 2.45792,3.493503 5.20283,7.923535 9.18521,14.824026 21.22452,34.201213 27.43784,44.161016 3.38528,5.426527 6.22779,10.05595 6.31669,10.287607 0.0889,0.231657 -0.21304,1.160564 -0.67097,2.064238 -2.17476,4.291678 -5.4063,8.430578 -10.14893,12.998548 -5.69446,5.484753 -10.56029,8.565563 -18.66209,11.815973 -4.09592,1.64327 -8.72569,3.20422 -10.47959,3.53326 l -1.07002,0.20073 z"
       id="path1" />
  </g>
</svg>
