<?xml version="1.0" encoding="UTF-8" standalone="no"?>
<!-- Created with Inkscape (http://www.inkscape.org/) -->

<svg
   version="1.1"
   id="svg1"
   width="225.92"
   height="222.08"
   viewBox="0 0 225.92 222.08"
   xmlns="http://www.w3.org/2000/svg"
   xmlns:svg="http://www.w3.org/2000/svg">
  <defs
     id="defs1" />
  <g
     id="g1">
    <path
       style="fill:#000000"
       d="m 78.441777,215.47797 c -0.60349,-0.30772 -1.39549,-0.96587 -1.76,-1.46254 -0.63954,-0.87142 -0.66592,-1.33926 -0.75351,-13.36339 l -0.0908,-12.46036 -0.70923,0.15693 c -0.39008,0.0863 -5.67724,0.88961 -11.74924,1.78511 -7.85301,1.15817 -11.49917,1.56984 -12.63062,1.42608 -6.31771,-0.80274 -11.700317,-5.11937 -13.999652,-11.22716 -0.698281,-1.85486 -0.715242,-2.23779 -0.817382,-18.45417 l -0.104304,-16.56 h -4.197807 c -5.313567,0 -7.75462,-0.42153 -9.903397,-1.71018 -3.366733,-2.01906 -4.659043,-6.07338 -3.228869,-10.12982 0.341287,-0.968 4.370653,-8.91363 8.954148,-17.65695 l 8.33363,-15.896967 0.164978,-10.823046 C 36.154224,75.685557 36.854174,70.752943 39.846795,61.638465 46.639497,40.950268 61.500057,24.009468 81.139007,14.566022 92.147387,9.2726047 101.64113,6.9284047 113.6447,6.5397007 c 14.04139,-0.454694 25.68108,2.050753 38.2143,8.2256373 12.41899,6.118606 22.5816,14.897518 30.50232,26.349264 6.84958,9.903105 11.19688,20.916656 13.22848,33.513375 0.93307,5.78543 1.01614,17.18297 0.16537,22.690486 -2.74547,17.772897 -9.96021,32.492057 -22.05184,44.989087 l -3.12433,3.22907 v 24.7338 c 0,17.84503 -0.10344,25.07903 -0.37138,25.97335 -0.43887,1.46482 -2.1933,3.61521 -3.50143,4.29167 -0.85494,0.44211 -84.853123,15.50366 -86.457543,15.50253 -0.3903,-2.7e-4 -1.20341,-0.25227 -1.8069,-0.56 z m 45.005873,-79.95633 c 2.02785,-0.97114 4.02723,-3.1619 4.70735,-5.15792 0.27721,-0.81359 0.50403,-2.37702 0.50403,-3.47429 0,-3.73788 -2.88454,-7.67989 -6.38772,-8.72947 -3.10679,-0.93082 -6.73107,-0.16827 -9.09656,1.91392 -2.58258,2.27328 -3.80385,5.83935 -3.07611,8.98213 1.40813,6.081 7.74408,9.14983 13.34901,6.46563 z m -7.32959,-2.60578 c -1.69113,-0.98855 -2.54492,-1.97431 -3.08782,-3.56514 -1.1634,-3.40907 0.51175,-7.09725 3.85851,-8.49527 3.18683,-1.33122 6.9221,0.20224 8.44159,3.46557 0.85002,1.82555 0.94247,2.90316 0.40343,4.70232 -1.21726,4.06284 -6.00722,6.00186 -9.61571,3.89252 z M 74.583877,116.32495 c 2.86552,-1.55961 4.47859,-4.11796 4.72031,-7.48649 0.0821,-1.144 0.005,-2.60408 -0.17238,-3.24461 l -0.32164,-1.16462 5.80443,-3.4325 c 3.19244,-1.887877 6.30844,-3.758117 6.92444,-4.156087 1.25957,-0.81376 15.790163,-9.459446 16.831353,-10.014646 0.59126,-0.31528 0.89046,-0.14576 2.5081,1.42105 1.88835,1.82901 5.50765,3.79212 7.38054,4.00322 0.8669,0.0977 0.97007,0.23193 1.06384,1.38404 0.11515,1.414876 0.4441,1.752006 1.71655,1.759256 0.76991,0.004 0.88215,-0.1402 1.06729,-1.374776 l 0.2069,-1.37968 1.97271,-0.34187 c 6.04409,-1.04745 11.08668,-6.17334 12.21694,-12.41877 l 0.34747,-1.92 6.22415,-0.40051 c 3.42328,-0.22028 6.93941,-0.36428 7.81363,-0.32 1.47993,0.075 1.60916,0.14949 1.87509,1.08145 0.46986,1.64666 2.48609,3.98326 4.32972,5.01771 2.26625,1.27157 5.53877,1.54139 7.80288,0.64337 2.25923,-0.89609 4.22049,-2.69485 5.20315,-4.77201 2.24896,-4.75392 0.21559,-10.320254 -4.62696,-12.666272 -2.05549,-0.995801 -5.68128,-0.978213 -7.69336,0.03732 -2.77099,1.39857 -4.7975,3.894424 -5.2889,6.513822 -0.12228,0.65182 -0.2423,1.18579 -0.26671,1.18661 -0.0244,8.2e-4 -3.49211,0.21646 -7.706,0.4792 -8.06654,0.50297 -8.16156,0.49265 -8.17349,-0.88772 -0.007,-0.8419 -1.69782,-4.358303 -2.83779,-5.902722 -0.54795,-0.742362 -1.69869,-1.874149 -2.55719,-2.51508 l -1.56091,-1.165331 3.18132,-6.44492 3.18133,-6.44492 2.93417,-0.0023 c 3.33404,-0.0026 4.73535,-0.540216 6.8064,-2.611268 1.82723,-1.827235 2.51844,-3.658097 2.5168,-6.666438 -0.001,-2.151042 -0.13771,-2.8202 -0.85467,-4.188806 -2.53733,-4.843549 -8.49654,-6.559103 -13.20302,-3.800922 -2.9249,1.714106 -4.44736,4.502991 -4.44896,8.149728 -0.001,2.826793 0.76591,4.733446 2.66968,6.635179 l 1.20611,1.204821 -3.13664,6.4 c -2.5089,5.119165 -3.2532,6.381949 -3.71908,6.309803 -0.32035,-0.04961 -1.56483,-0.25679 -2.76551,-0.460403 -10.79082,-1.82992 -20.13494,8.878047 -16.86107,19.322089 0.34973,1.11568 0.63773,2.12274 0.64,2.2379 0.002,0.11517 -1.75987,1.25858 -3.91587,2.54091 -2.156,1.28233 -8.934883,5.33686 -15.064183,9.010056 l -11.14418,6.678537 -0.85336,-0.85335 c -0.46934,-0.46934 -1.57446,-1.22641 -2.45581,-1.682367 -1.33345,-0.68985 -2.00536,-0.82349 -4.00246,-0.79608 -4.74315,0.0651 -7.80638,2.406837 -9.13734,6.985167 -1.23687,4.25471 0.89176,8.72373 5.13443,10.77963 1.74275,0.8445 2.15323,0.91774 4.38128,0.7817 1.89729,-0.11585 2.83453,-0.35483 4.10647,-1.04711 z m -6.35054,-1.70794 c -1.5205,-0.38269 -3.29689,-1.90582 -4.1343,-3.54489 -1.48048,-2.89775 -0.56252,-6.57638 2.11083,-8.45891 1.81272,-1.27649 4.76202,-1.51872 6.66583,-0.54747 2.41273,1.23088 3.94875,3.68754 3.93452,6.29272 -0.006,1.07754 -1.02405,3.5163 -1.84878,4.42831 -1.37103,1.51612 -4.54532,2.37962 -6.7281,1.83024 z M 118.38462,89.515197 c -5.12453,-1.48466 -8.50164,-5.32014 -9.27751,-10.53673 -0.29234,-1.96552 -0.26356,-2.70144 0.17244,-4.40963 1.32615,-5.195762 5.10474,-8.689689 10.30301,-9.526847 3.17228,-0.51088 5.93964,0.08095 8.68969,1.8584 3.051,1.971959 4.86099,4.736147 5.55009,8.476037 1.30319,7.07269 -4.30477,14.03488 -11.62933,14.4376 -1.38793,0.0763 -2.93162,-0.0448 -3.80839,-0.29883 z m 40.9977,-7.97769 c -0.6142,-0.1956 -1.6971,-0.9369 -2.40646,-1.64734 -2.76878,-2.773 -2.69662,-7.10627 0.16093,-9.664404 1.28981,-1.154661 2.6417,-1.652236 4.57252,-1.682953 1.91349,-0.03044 3.29475,0.538158 4.62436,1.903633 3.27468,3.363034 2.39897,8.495674 -1.814,10.632024 -1.83976,0.93292 -3.25282,1.05918 -5.13735,0.45904 z M 136.16117,48.394904 c -1.68535,-0.765508 -3.50431,-2.911354 -3.9423,-4.650768 -0.70821,-2.812568 0.91517,-6.226529 3.57249,-7.512914 2.19291,-1.061569 4.5758,-0.927089 6.50731,0.367242 2.07542,1.390763 3.02793,3.153712 3.06362,5.670219 0.0381,2.68863 -1.13868,4.621143 -3.5622,5.849781 -2.04336,1.035912 -3.77948,1.121023 -5.63892,0.27644 z m -14.99373,67.324286 c 0.33105,-1.31898 -0.0348,-1.76072 -1.45837,-1.76072 h -1.29004 v 1.28 c 0,1.27898 10e-4,1.28 1.2739,1.28 1.09165,0 1.30261,-0.11435 1.47451,-0.79928 z m 0.13159,-5.76072 v -1.44001 h -1.28 -1.28 v 1.44001 1.44 h 1.28 1.28 z m 0.32,-5.28001 c 0,-1.1392 -0.088,-1.28528 -0.8,-1.328 -0.44,-0.0264 -0.97756,-0.0624 -1.19457,-0.08 -0.38816,-0.0315 -0.93905,2.20772 -0.62131,2.52546 0.0894,0.0894 0.71455,0.16254 1.38921,0.16254 1.21778,0 1.22667,-0.009 1.22667,-1.28 z m 0.2584,-5.384867 0.0984,-1.33513 h -1.4584 -1.4584 v 1.25973 c 0,1.181967 0.0642,1.267517 1.04,1.386077 1.58145,0.19215 1.67259,0.12498 1.7784,-1.310677 z M 107.85744,66.747459 c 0.002,-0.462295 -1.84963,-1.509272 -2.24135,-1.267182 -0.17689,0.109324 -0.53387,0.609223 -0.79329,1.110886 -0.45759,0.884893 -0.44081,0.931976 0.56228,1.577573 l 1.03395,0.665457 0.71841,-0.877864 c 0.39513,-0.482826 0.71913,-1.026817 0.72,-1.20887 z m -4.48,-2.912191 c 0.002,-0.527664 -1.57075,-1.47589 -2.10704,-1.2701 -0.2513,0.09643 -0.62684,0.548296 -0.83454,1.004137 -0.34081,0.747999 -0.28594,0.903728 0.56277,1.597322 l 0.9404,0.768519 0.71841,-0.868341 c 0.39512,-0.477587 0.71912,-1.031779 0.72,-1.231537 z m -4.773777,-2.245637 0.631819,-0.997897 -1.034149,-0.654778 c -1.16694,-0.738855 -1.25908,-0.715044 -2.167,0.560017 l -0.6545,0.919154 1.0396,0.665444 c 1.25655,0.804314 1.38129,0.77622 2.18423,-0.49194 z M 88.208257,60.357157 c 0.89607,-0.437841 1.88479,-1.078487 2.19717,-1.423659 0.56275,-0.621828 0.57841,-0.620482 1.70756,0.146797 l 1.1396,0.774381 0.72466,-1.028106 0.72465,-1.028106 -0.67263,-0.57275 c -0.36994,-0.315013 -0.86133,-0.678351 -1.09196,-0.807419 -0.34208,-0.191438 -0.32856,-0.528046 0.0734,-1.827249 0.99295,-3.209494 -0.15606,-7.199165 -2.74231,-9.522 -5.88332,-5.284096 -15.1262,-1.511975 -15.6335,6.38021 -0.28927,4.500223 2.69587,8.573223 7.14415,9.74766 1.59607,0.421394 4.66986,0.01991 6.42922,-0.839759 z m -7.06922,-2.290415 c -3.08373,-1.625699 -4.56155,-4.972468 -3.54591,-8.030287 0.5054,-1.521599 2.17844,-3.483459 3.54591,-4.158036 1.1897,-0.586884 2.9878,-0.742312 4.41886,-0.381967 6.09071,1.533658 6.85228,10.206228 1.10705,12.60674 -1.51629,0.633543 -4.28973,0.615249 -5.52591,-0.03645 z"
       id="path1" />
  </g>
</svg>
