<?xml version="1.0" encoding="UTF-8" standalone="no"?>
<!-- Created with Inkscape (http://www.inkscape.org/) -->

<svg
   version="1.1"
   id="svg1"
   width="227.2"
   height="200.32001"
   viewBox="0 0 227.2 200.32001"
   xmlns="http://www.w3.org/2000/svg"
   xmlns:svg="http://www.w3.org/2000/svg">
  <defs
     id="defs1" />
  <g
     id="g1">
    <path
       style="fill:#000000"
       d="m 38.461926,156.4659 c -7.283833,-0.97834 -13.841516,-5.86537 -17.453399,-13.00691 -1.369461,-2.70775 -2.193742,-6.29557 -2.410521,-10.4922 L 18.4,129.13358 17.44,128.84827 c -3.561474,-1.05849 -5.437081,-2.55519 -6.65643,-5.31173 -0.618804,-1.39891 -0.643767,-2.10825 -0.636833,-18.09626 0.0079,-18.3133 -0.05323,-17.700927 2.026647,-20.289051 1.08386,-1.34872 2.872927,-2.393859 4.980657,-2.909606 l 1.314042,-0.321538 0.185134,-3.280041 C 19.11246,70.503596 22.943602,63.662017 29.44,59.37722 c 3.459473,-2.281748 5.979566,-3.10878 10.399999,-3.413021 2.112,-0.145361 35.52,-0.26058 74.240001,-0.256043 77.66657,0.0091 72.15487,-0.136424 76.78966,2.027482 6.25992,2.92265 10.75258,8.314428 12.79201,15.352076 0.45008,1.553136 0.82663,3.635775 0.83677,4.628086 0.0101,0.992312 0.1199,2.375996 0.24391,3.074855 0.21197,1.194592 0.30979,1.287329 1.63426,1.549254 1.76887,0.34981 3.49129,1.4252 4.77279,2.97988 1.96646,2.385665 1.97091,2.43183 1.96747,20.417221 l -0.003,16.34299 -0.75772,1.6 c -1.2824,2.70793 -3.14629,4.2456 -6.02495,4.97045 l -1.4456,0.36401 -0.20274,1.93971 c -0.11151,1.06685 -0.20274,2.63151 -0.20274,3.47703 0,6.06013 -3.93103,13.5938 -9.15781,17.55057 -2.51204,1.90167 -4.5785,2.96029 -7.64857,3.91829 -2.18089,0.68053 -2.73321,0.6999 -23.39382,0.82062 -13.01536,0.0761 -22.27574,-9.1e-4 -24.05837,-0.19994 -7.48621,-0.83581 -12.36156,-3.99873 -17.65836,-11.45601 -5.41764,-7.62739 -6.82864,-8.74473 -11.04307,-8.74473 -4.23564,0 -5.68189,1.17241 -11.28927,9.15167 -2.96779,4.22313 -6.034083,7.05286 -9.436201,8.70818 -5.146201,2.50393 -4.142826,2.4164 -28.55453,2.4908 -11.968,0.0365 -22.668133,-0.0557 -23.778073,-0.20475 z m 48.489363,-6.35027 c 2.170641,-0.79411 5.123896,-2.59398 6.667699,-4.06365 0.538443,-0.51258 2.727587,-3.25838 4.864764,-6.10177 4.540938,-6.04145 5.500008,-7.03656 7.987418,-8.28751 1.67257,-0.84116 2.1539,-0.92981 5.04883,-0.92981 2.90294,0 3.3736,0.0873 5.07011,0.94023 2.45857,1.23608 3.55565,2.35336 7.55774,7.69689 1.84132,2.4585 4.00132,5.17682 4.8,6.04073 1.94578,2.10467 4.77853,3.89813 7.51886,4.76032 2.23602,0.70351 2.4237,0.70895 24.49329,0.70895 20.68021,0 22.37466,-0.0413 24.16,-0.58839 5.58427,-1.71131 10.19897,-5.9758 12.57767,-11.62316 1.6987,-4.03297 1.66233,-3.32297 1.66233,-32.4445 0,-25.968802 -0.0261,-27.183665 -0.6354,-29.56598 -1.6501,-6.451817 -6.59866,-12.050746 -12.68005,-14.34654 L 184.16,61.600002 112.0781,61.517241 39.996205,61.434479 37.998102,62.098882 C 31.724134,64.18508 26.121162,70.110533 24.507259,76.366193 24.063263,78.087166 24,81.792978 24,106.08 c 0,30.57284 -0.06489,29.48553 2.013029,33.72937 2.982763,6.09185 8.497603,10.20923 14.62697,10.9205 1.144,0.13275 11.584,0.21276 23.2,0.17781 21.102032,-0.0635 21.121694,-0.0642 23.11129,-0.79205 z m -37.83129,-2.93258 c -7.928669,-0.19928 -8.915888,-0.42701 -12.644115,-2.91662 -3.523931,-2.35319 -6.537352,-6.99478 -7.326596,-11.2852 C 28.915974,131.71291 28.8,122.73266 28.8,105.9348 c 0,-24.451142 0.01835,-25.213893 0.66266,-27.538952 0.928355,-3.350079 2.253728,-5.66128 4.678884,-8.159086 1.637315,-1.686365 2.685938,-2.432682 4.853507,-3.454295 2.747024,-1.294721 2.797103,-1.30469 7.724948,-1.537773 2.728,-0.129033 33.4,-0.243374 68.160001,-0.254092 69.52599,-0.02144 65.51223,-0.133105 69.76,1.940811 2.69186,1.314268 6.27129,4.835923 7.60811,7.485319 2.25969,4.478409 2.15189,2.884139 2.15189,31.823268 0,20.7663 -0.0867,26.3734 -0.42563,27.52 -1.98057,6.70081 -7.08831,11.79636 -13.11012,13.07885 -1.15418,0.24581 -7.95446,0.36116 -21.29277,0.36116 -16.59192,0 -19.88641,-0.0754 -21.48422,-0.49156 -5.10828,-1.33054 -7.0155,-2.86332 -12.26827,-9.8597 -4.60058,-6.12771 -6.33416,-7.894 -8.90126,-9.06926 -3.78608,-1.73332 -7.10256,-1.71817 -10.91371,0.0499 -2.46272,1.14247 -4.43754,3.1729 -8.690225,8.93491 -4.422836,5.99255 -6.314784,7.71477 -10.113796,9.20645 -2.147027,0.84303 -3.102028,1.02626 -5.92,1.13581 -5.628348,0.2188 -24.694765,0.26418 -32.16,0.0765 z M 156.81498,118.26477 c 6.84427,-1.45096 12.36695,-6.98459 14.23653,-14.26477 0.81973,-3.19203 0.53888,-9.088189 -0.56059,-11.76921 -2.50695,-6.113083 -6.31312,-9.875128 -11.88244,-11.744688 -7.34616,-2.466024 -15.54661,0.592155 -20.07541,7.486682 -5.06651,7.713141 -4.30654,18.017186 1.81815,24.651216 4.56144,4.94078 10.3731,6.93196 16.46376,5.64077 z m -83.790732,-0.8558 C 79.996323,115.96571 85.880243,109.6177 87.232566,102.08 88.969187,92.400269 82.910443,82.556836 73.746702,80.169984 71.275364,79.526283 66.523507,79.536769 64.29808,80.190834 54.455572,83.083603 48.624432,93.44963 51.192142,103.48928 c 0.924523,3.61485 2.345272,6.06967 5.11709,8.84149 2.569749,2.56975 5.138143,4.14125 8.046711,4.92346 2.081449,0.55977 6.344113,0.63587 8.668305,0.15474 z m -6.011389,-2.0061 c -2.072651,-0.93963 -3.313722,-3.65716 -2.704109,-5.92109 0.887598,-3.29629 4.204047,-4.80354 7.049956,-3.20405 3.121034,1.75412 3.435754,6.61244 0.560957,8.65948 -1.187632,0.84567 -3.569891,1.07175 -4.906804,0.46566 z m -10.377852,-6.23618 c -4.131053,-2.19819 -2.861287,-8.94835 1.792696,-9.530092 3.038373,-0.37979 5.897694,2.678082 5.428685,5.805662 -0.515909,3.44033 -4.19213,5.33634 -7.221381,3.72443 z m 19.805009,-0.18715 c -2.966805,-2.01599 -2.932573,-6.35206 0.06769,-8.57355 3.225981,-2.38862 8.128966,0.89994 7.508685,5.03627 -0.54042,3.60377 -4.652907,5.52383 -7.576372,3.53728 z m -8.208815,-8.997682 c -1.24347,-0.87096 -0.629874,-3.021854 0.862059,-3.021854 0.694339,0 1.626739,0.97737 1.626739,1.705197 0,0.54197 -1.072239,1.814799 -1.528798,1.814799 -0.136839,0 -0.568839,-0.22416 -0.96,-0.498142 z M 56.978733,97.213976 c -1.906224,-0.984415 -2.655841,-2.093963 -2.810995,-4.160702 -0.153041,-2.03859 0.557964,-3.562148 2.184777,-4.681591 0.908037,-0.624839 1.391693,-0.727034 2.931044,-0.619323 1.574902,0.110198 2.00748,0.287874 2.968402,1.219237 4.135939,4.00871 -0.23667,10.843367 -5.273228,8.242379 z m 20.621266,0.330241 c -3.908853,-1.407485 -4.547214,-6.791824 -1.087484,-9.172534 0.908037,-0.624839 1.391692,-0.727034 2.931043,-0.619323 1.57408,0.110141 2.007658,0.288046 2.966183,1.217086 3.114027,3.018234 1.52992,8.095187 -2.729742,8.748633 -0.616,0.0945 -1.552,0.01626 -2.08,-0.173862 z M 66.88732,91.139973 c -3.487166,-1.8011 -3.654411,-6.573942 -0.31002,-8.847386 1.390753,-0.945403 3.851142,-0.851631 5.33257,0.203239 2.020249,1.438544 2.655597,4.781143 1.290129,6.787431 -1.657892,2.435949 -3.90918,3.098109 -6.312679,1.856716 z M 84.479999,115.36 c 0,-0.5612 -0.174385,-0.8 -0.58422,-0.8 -0.32132,0 -0.922422,0.36 -1.33578,0.8 l -0.751561,0.8 h 1.33578 c 1.2115,0 1.335781,-0.0744 1.335781,-0.8 z m 4.8,0 c 0,-0.75636 -0.096,-0.8 -1.76,-0.8 -1.664,0 -1.76,0.0436 -1.76,0.8 0,0.75637 0.096,0.8 1.76,0.8 1.664,0 1.76,-0.0436 1.76,-0.8 z m 4.8,0 c 0,-0.74666 -0.106667,-0.8 -1.6,-0.8 -1.493334,0 -1.6,0.0533 -1.6,0.8 0,0.74667 0.106666,0.8 1.6,0.8 1.493333,0 1.6,-0.0533 1.6,-0.8 z m 4.16,0 c 0,-0.73481 -0.117334,-0.8 -1.44,-0.8 -1.322667,0 -1.44,0.0652 -1.44,0.8 0,0.73482 0.117333,0.8 1.44,0.8 1.322666,0 1.44,-0.0652 1.44,-0.8 z m 3.200001,0 c 0,-0.67555 -0.14933,-0.8 -0.96,-0.8 -0.810668,0 -0.960001,0.12445 -0.960001,0.8 0,0.67556 0.149333,0.8 0.960001,0.8 0.81067,0 0.96,-0.12444 0.96,-0.8 z m -9.760001,-8.16 v -5.92 l -0.88,-0.10125 c -0.724937,-0.0834 -0.88,0.0233 -0.88,0.6055 0,2.16524 -2.28373,7.70935 -4.12734,10.01976 -0.545963,0.6842 -0.99266,1.30107 -0.99266,1.37082 0,0.0698 1.548,0.0859 3.44,0.036 l 3.44,-0.0908 z m 9.760001,0 v -6.08 h -4.160001 -4.16 v 6.08 6.08 h 4.16 4.160001 z m -62.924865,-0.44063 c 1.499207,-0.62641 2.324519,-2.4311 1.844487,-4.03331 -0.445152,-1.48578 -1.249284,-2.22295 -2.677741,-2.45476 C 35.865032,99.976469 33.92,101.73889 33.92,103.68 c 0,1.05186 0.883096,2.49769 1.844022,3.01908 1.102575,0.59825 1.445606,0.60577 2.751113,0.0603 z M 188.032,106.112 c 0.89193,-0.89193 1.088,-1.33019 1.088,-2.432 0,-1.75048 -1.60866,-3.52 -3.2,-3.52 -1.59135,0 -3.2,1.76952 -3.2,3.52 0,1.75049 1.60865,3.52 3.2,3.52 0.73788,0 1.328,-0.304 2.112,-1.088 z M 94.079999,99.040004 c 0,-0.746667 -0.106667,-0.8 -1.6,-0.8 -1.493334,0 -1.6,0.05333 -1.6,0.8 0,0.746666 0.106666,0.8 1.6,0.8 1.493333,0 1.6,-0.05333 1.6,-0.8 z m 4.16,0 c 0,-0.734815 -0.117334,-0.8 -1.44,-0.8 -1.322667,0 -1.44,0.06518 -1.44,0.8 0,0.734814 0.117333,0.8 1.44,0.8 1.322666,0 1.44,-0.06519 1.44,-0.8 z m 3.200001,0 c 0,-0.675556 -0.14933,-0.8 -0.96,-0.8 -0.810668,0 -0.960001,0.124444 -0.960001,0.8 0,0.675555 0.149333,0.8 0.960001,0.8 0.81067,0 0.96,-0.124445 0.96,-0.8 z M 48.221908,52.128049 c 1.075941,-1.846217 5.764465,-7.487087 7.823946,-9.413168 9.168789,-8.574894 19.807245,-14.573312 31.995511,-18.040441 4.175188,-1.187693 8.260106,-2.079633 8.486677,-1.853062 0.09534,0.09534 -0.05619,1.659529 -0.336725,3.475982 -0.480491,3.111138 -0.848811,6.875997 -1.324892,13.542641 -0.113117,1.584001 -0.251848,2.92751 -0.30829,2.985577 -0.05644,0.05807 -1.231114,0.388544 -2.61038,0.734393 -6.73415,1.688575 -14.3056,4.620682 -19.750156,7.648413 l -3.43753,1.911618 H 58.201943 47.643816 Z m 48.848589,-5.488047 c 0.340088,-10.828105 1.242104,-20.542219 2.161693,-23.280001 0.521661,-1.55308 1.72999,-3.096281 2.94435,-3.760337 0.8988,-0.491496 2.01736,-0.559663 9.18346,-0.559663 9.05889,0 9.43835,0.07469 10.97231,2.159663 1.0577,1.437635 1.41482,2.506753 1.95086,5.840337 0.41755,2.596659 0.54986,3.833786 0.99253,9.28 0.0715,0.88 0.21204,3.688 0.31225,6.240001 0.1002,2.552 0.26903,5.972 0.37517,7.6 l 0.19299,2.96 H 111.51154 96.866974 Z M 154.4,51.176173 c -6.51923,-3.475788 -14.81087,-6.392353 -21.86437,-7.690742 -2.0546,-0.378205 -3.90109,-0.731045 -4.10331,-0.78409 -0.23126,-0.06066 -0.44553,-1.381088 -0.5775,-3.558893 -0.31676,-5.226843 -1.04885,-11.816574 -1.60756,-14.470147 -0.27419,-1.302235 -0.43094,-2.435291 -0.34833,-2.517901 0.245,-0.244995 6.45448,0.862844 10.48383,1.870428 7.88957,1.972876 15.65606,5.306276 22.50063,9.657339 4.90905,3.120661 8.14612,5.732978 12.25634,9.890892 2.84696,2.879985 7.39454,8.5888 7.41382,9.306943 0.004,0.132 -4.63755,0.224901 -10.31355,0.206446 l -10.32,-0.03355 z"
       id="path1" />
  </g>
</svg>
